<svg xmlns="http://www.w3.org/2000/svg" xmlns:xlink="http://www.w3.org/1999/xlink" width="550" height="550" viewBox="0 0 550 550"><defs><clipPath id="b"><rect width="550" height="550"/></clipPath></defs><g id="a" clip-path="url(#b)"><rect width="550" height="550" fill="#fff"/><g transform="translate(-32 -1550)"><rect width="550" height="550" transform="translate(32 1550)" fill="#69f0ae"/></g><g transform="translate(-32 -1550)"><path d="M582,1827.1l-1.619,1.043a123.94,123.94,0,0,1-134.967-.446l-.914-.6h0a123.942,123.942,0,0,1-137.5,0h0a123.942,123.942,0,0,1-137.5,0h0a123.942,123.942,0,0,1-137.5,0h0V1575.017H582Z" fill="#fff"/><path d="M582,1815.824l-1.619,1.044a123.942,123.942,0,0,1-134.967-.446l-.914-.6h0a123.939,123.939,0,0,1-137.5,0h0a123.939,123.939,0,0,1-137.5,0h0a123.939,123.939,0,0,1-137.5,0h0V1550H582Z" fill="#ffbf80"/><path d="M442.98,1838.3a123.919,123.919,0,0,1-17.131,8.918" fill="none" stroke="#fff" stroke-linecap="round" stroke-linejoin="round" stroke-width="1"/><path d="M387.267,1856.691a124.31,124.31,0,0,1-18.68.082" fill="none" stroke="#fff" stroke-linecap="round" stroke-linejoin="round" stroke-width="1"/><path d="M287.958,1847.386a123.511,123.511,0,0,1-11.613,4.22" fill="none" stroke="#fff" stroke-linecap="round" stroke-linejoin="round" stroke-width="1"/><path d="M266.44,1854.21a124.123,124.123,0,0,1-56.538-.8" fill="none" stroke="#fff" stroke-linecap="round" stroke-linejoin="round" stroke-width="1"/><path d="M575.075,1852.164a123.677,123.677,0,0,1-32.908,13.258" fill="none" stroke="#fff" stroke-linecap="round" stroke-linejoin="round" stroke-width="1"/><path d="M411.741,1866.168a124.047,124.047,0,0,1-48.308,4.907" fill="none" stroke="#fff" stroke-linecap="round" stroke-linejoin="round" stroke-width="1"/><path d="M350.666,1869.175a123.668,123.668,0,0,1-30.336-10.382" fill="none" stroke="#fff" stroke-linecap="round" stroke-linejoin="round" stroke-width="1"/><path d="M198.917,1862.035q-4.293-1.476-8.5-3.275" fill="none" stroke="#fff" stroke-linecap="round" stroke-linejoin="round" stroke-width="1"/><path d="M186.457,1856.98a124.2,124.2,0,0,1-16.011-9.039,123.754,123.754,0,0,1-50.944,19.532" fill="none" stroke="#fff" stroke-linecap="round" stroke-linejoin="round" stroke-width="1"/><path d="M110.335,1868.455a123.989,123.989,0,0,1-49.938-6.776" fill="none" stroke="#fff" stroke-linecap="round" stroke-linejoin="round" stroke-width="1"/><path d="M69.223,1774.332l-10.377-4.738,1.086,11.356Z" fill="#ffa143"/><path d="M460.878,1767.824l-2.42-11.148-8.445,7.67Z" fill="#ffa143"/><path d="M386.894,1806.566,381.7,1804.2l.543,5.678Z" fill="#ffa143"/><path d="M234.018,1771.778l-6.362,1.7,4.657,4.657Z" fill="#ffa143"/><path d="M557.59,1800.517l-6.362,1.7,4.657,4.657Z" fill="#ffa143"/><circle cx="1.22" cy="1.22" r="1.22" transform="translate(322.513 1770.971)" fill="#ffa143"/><circle cx="1.971" cy="1.971" r="1.971" transform="translate(506.277 1744.035)" fill="#ffa143"/><circle cx="2.252" cy="2.252" r="2.252" transform="translate(74.646 1735.213)" fill="#ffa143"/><circle cx="1.314" cy="1.314" r="1.314" transform="translate(115.378 1800.723)" fill="#ffa143"/></g></g></svg>