<svg xmlns="http://www.w3.org/2000/svg" xmlns:xlink="http://www.w3.org/1999/xlink" width="92" height="92" viewBox="0 0 92 92"><defs><clipPath id="b"><rect width="92" height="92"/></clipPath></defs><g id="a" clip-path="url(#b)"><rect width="92" height="92" fill="none"/><g transform="translate(-147 -1180)"><rect width="3.833" height="11.5" transform="translate(191.083 1249)" stroke-width="1.1" stroke="#00251a" stroke-linecap="round" stroke-linejoin="round" fill="#f06"/><rect width="3.833" height="11.5" transform="translate(216 1227.917) rotate(-90)" stroke-width="1.1" stroke="#00251a" stroke-linecap="round" stroke-linejoin="round" fill="#f06"/><rect width="3.833" height="11.5" transform="translate(194.917 1203) rotate(-180)" stroke-width="1.1" stroke="#00251a" stroke-linecap="round" stroke-linejoin="round" fill="#f06"/><path d="M219.206,1231.75a26.809,26.809,0,0,1-20.456,20.456v3.917a30.665,30.665,0,0,0,24.373-24.373Z" fill="#f06" stroke="#00251a" stroke-linecap="round" stroke-linejoin="round" stroke-width="1.1"/><path d="M166.795,1220.25a26.806,26.806,0,0,1,20.455-20.456v-3.917a30.665,30.665,0,0,0-24.373,24.373Z" fill="#f06" stroke="#00251a" stroke-linecap="round" stroke-linejoin="round" stroke-width="1.1"/><path d="M198.75,1199.794a26.809,26.809,0,0,1,20.456,20.456h3.917a30.665,30.665,0,0,0-24.373-24.373Z" fill="#f06" stroke="#00251a" stroke-linecap="round" stroke-linejoin="round" stroke-width="1.1"/><path d="M187.25,1252.206a26.806,26.806,0,0,1-20.455-20.456h-3.918a30.665,30.665,0,0,0,24.373,24.373Z" fill="#f06" stroke="#00251a" stroke-linecap="round" stroke-linejoin="round" stroke-width="1.1"/><rect width="3.833" height="11.5" transform="translate(170 1224.083) rotate(90)" stroke-width="1.1" stroke="#00251a" stroke-linecap="round" stroke-linejoin="round" fill="#f06"/><path d="M184.868,1234.132l-8.551,2.291,6.26,6.26Z" fill="#f06" stroke="#00251a" stroke-linecap="round" stroke-linejoin="round" stroke-width="1.1"/><path d="M201.132,1234.132l2.291,8.551,6.26-6.26Z" fill="#f06" stroke="#00251a" stroke-linecap="round" stroke-linejoin="round" stroke-width="1.1"/><path d="M201.132,1217.868l8.551-2.291-6.26-6.26Z" fill="#f06" stroke="#00251a" stroke-linecap="round" stroke-linejoin="round" stroke-width="1.1"/><path d="M184.868,1217.868l-2.291-8.551-6.26,6.26Z" fill="#f06" stroke="#00251a" stroke-linecap="round" stroke-linejoin="round" stroke-width="1.1"/></g></g></svg>