<svg xmlns="http://www.w3.org/2000/svg" xmlns:xlink="http://www.w3.org/1999/xlink" width="92" height="92" viewBox="0 0 92 92"><defs><clipPath id="b"><rect width="92" height="92"/></clipPath></defs><g id="a" clip-path="url(#b)"><rect width="92" height="92" fill="none"/><g transform="translate(-32 -1361)"><rect width="3.833" height="49.833" transform="translate(78.233 1376.328)" stroke-width="1" stroke="#00251a" stroke-linecap="round" stroke-linejoin="round" fill="#350e51"/><rect width="53.667" height="30.667" transform="translate(51.4 1380.161)" stroke-width="1" stroke="#00251a" stroke-linecap="round" stroke-linejoin="round" fill="#36e6df"/><rect width="53.667" height="11.449" transform="translate(51.4 1389.77)" stroke-width="1" stroke="#00251a" stroke-linecap="round" stroke-linejoin="round" fill="#265fe6"/><rect width="23.134" height="11.5" transform="translate(85.766 1414.661)" stroke-width="1" stroke="#00251a" stroke-linecap="round" stroke-linejoin="round" fill="#36e6df"/><path d="M39.9,1418.495l15.33,26.851,7.67-3.846,7.667,3.8,7.672-3.8,7.661,3.8,7.667-3.8,7.67,3.846,15.33-26.851H97.4l-3.833,7.667H74.4l-3.833-7.667Z" fill="#7cd7ff" stroke="#00251a" stroke-linecap="round" stroke-linejoin="round" stroke-width="1"/><path d="M42.092,1422.328H66.733l3.833,7.667H97.4l3.833-7.667h13.141l2.192-3.833H97.4l-3.833,7.667H74.4l-3.833-7.667H39.9Z" fill="#265fe6" stroke="#00251a" stroke-linecap="round" stroke-linejoin="round" stroke-width="1"/><line x2="23" transform="translate(72.483 1422.328)" stroke-width="1" stroke="#00251a" stroke-linecap="round" stroke-linejoin="round" fill="#fff"/><line y1="3.833" transform="translate(78.233 1422.328)" stroke-width="1" stroke="#00251a" stroke-linecap="round" stroke-linejoin="round" fill="#fff"/><line y1="3.833" transform="translate(82.066 1422.328)" stroke-width="1" stroke="#00251a" stroke-linecap="round" stroke-linejoin="round" fill="#fff"/><line y1="3.833" transform="translate(85.766 1422.328)" stroke-width="1" stroke="#00251a" stroke-linecap="round" stroke-linejoin="round" fill="#fff"/><line y1="3.833" transform="translate(89.733 1422.328)" stroke-width="1" stroke="#00251a" stroke-linecap="round" stroke-linejoin="round" fill="#fff"/><rect width="26.833" height="3.833" transform="translate(36.066 1414.661)" stroke-width="1" stroke="#00251a" stroke-linecap="round" stroke-linejoin="round" fill="#36e6df"/><rect width="7.667" height="3.833" transform="translate(39.9 1410.828)" stroke-width="1" stroke="#00251a" stroke-linecap="round" stroke-linejoin="round" fill="#7cd7ff"/><circle cx="1.917" cy="1.917" r="1.917" transform="translate(51.4 1426.162)" fill="#265fe6" stroke="#00251a" stroke-linecap="round" stroke-linejoin="round" stroke-width="1"/><line y1="11.5" transform="translate(112.733 1406.995)" stroke-width="1" stroke="#00251a" stroke-linecap="round" stroke-linejoin="round" fill="none"/><rect width="3.833" height="3.833" transform="translate(108.9 1406.995)" stroke-width="1" stroke="#00251a" stroke-linecap="round" stroke-linejoin="round" fill="#265fe6"/><path d="M85.9,1391.666a7.667,7.667,0,1,0-11.49,6.639v4.852h7.656V1398.3A7.657,7.657,0,0,0,85.9,1391.666Z" fill="#fff" stroke="#00251a" stroke-linecap="round" stroke-linejoin="round" stroke-width="1"/><path d="M74.889,1391.8l-1.66-.959a1.917,1.917,0,0,0,3.32,1.917Z" fill="#00251a" stroke="#00251a" stroke-linecap="round" stroke-linejoin="round" stroke-width="1"/><path d="M81.587,1391.8l-1.66.958a1.917,1.917,0,0,0,3.32-1.917Z" fill="#00251a" stroke="#00251a" stroke-linecap="round" stroke-linejoin="round" stroke-width="1"/><rect width="7.656" height="3.833" transform="translate(74.41 1403.157)" stroke-width="1" stroke="#00251a" stroke-linecap="round" stroke-linejoin="round" fill="#fff"/><line y2="3.823" transform="translate(76.963 1399.333)" stroke-width="1" stroke="#00251a" stroke-linecap="round" stroke-linejoin="round" fill="none"/><line y2="3.823" transform="translate(79.515 1399.333)" stroke-width="1" stroke="#00251a" stroke-linecap="round" stroke-linejoin="round" fill="none"/><line y2="1.774" transform="translate(76.962 1403.157)" stroke-width="1" stroke="#00251a" stroke-linecap="round" stroke-linejoin="round" fill="none"/><line y2="1.774" transform="translate(79.514 1403.157)" stroke-width="1" stroke="#00251a" stroke-linecap="round" stroke-linejoin="round" fill="none"/><path d="M39.9,1445.362l7.667-3.862,7.663,3.846,7.67-3.846,7.667,3.846,7.672-3.846,7.662,3.862,7.666-3.862,7.67,3.846,7.663-3.846,7.667,3.862" fill="none" stroke="#00251a" stroke-linecap="round" stroke-linejoin="round" stroke-width="1"/><path d="M82.066,1376.328H62.9l3.833-3.831-3.833-3.831H82.066Z" fill="#265fe6" stroke="#00251a" stroke-linecap="round" stroke-linejoin="round" stroke-width="1"/><path d="M105.621,1437.667H50.845l4.384,7.679,7.67-3.846,7.667,3.846,7.672-3.846,7.662,3.862,7.666-3.862,7.67,3.846Z" fill="#265fe6" stroke="#00251a" stroke-linecap="round" stroke-linejoin="round" stroke-width="1"/></g></g></svg>