<svg xmlns="http://www.w3.org/2000/svg" xmlns:xlink="http://www.w3.org/1999/xlink" width="92" height="92" viewBox="0 0 92 92"><defs><clipPath id="b"><rect width="92" height="92"/></clipPath></defs><g id="a" clip-path="url(#b)"><g transform="translate(-147 -1361)"><rect width="3.833" height="57.5" transform="translate(189.167 1372.5)" stroke-width="1" stroke="#00251a" stroke-linecap="round" stroke-linejoin="round" fill="#350e51"/><rect width="3.833" height="34.495" transform="translate(162.333 1387.838)" stroke-width="1" stroke="#00251a" stroke-linecap="round" stroke-linejoin="round" fill="#350e51"/><rect width="3.833" height="38.331" transform="translate(217.917 1380.164)" stroke-width="1" stroke="#00251a" stroke-linecap="round" stroke-linejoin="round" fill="#350e51"/><path d="M150.833,1422.333l3.833,3.833h7.667l5.863,14.675,1.8,4.5,7.67-3.846,7.667,3.8,7.672-3.8,7.661,3.8,7.667-3.8,7.67,3.846,7.663-3.846L227.5,1430h3.833l3.833-11.5h-24.6l-2.238,7.669H170l-3.833-3.839Z" fill="#7e98e6" stroke="#00251a" stroke-linecap="round" stroke-linejoin="round" stroke-width="1"/><path d="M154.667,1445.362l7.667-3.862,7.663,3.846,7.67-3.846,7.667,3.846,7.672-3.846,7.662,3.862,7.666-3.862,7.67,3.846,7.663-3.846,7.667,3.862" fill="none" stroke="#00251a" stroke-linecap="round" stroke-linejoin="round" stroke-width="1"/><line x2="43.287" transform="translate(166.167 1422.333)" stroke-width="1" stroke="#00251a" stroke-linecap="round" stroke-linejoin="round" fill="none"/><line y2="3.833" transform="translate(173.833 1422.339)" stroke-width="1" stroke="#00251a" stroke-linecap="round" stroke-linejoin="round" fill="none"/><line y2="3.833" transform="translate(177.667 1422.339)" stroke-width="1" stroke="#00251a" stroke-linecap="round" stroke-linejoin="round" fill="none"/><line y2="3.833" transform="translate(181.5 1422.339)" stroke-width="1" stroke="#00251a" stroke-linecap="round" stroke-linejoin="round" fill="none"/><line y2="3.833" transform="translate(185.333 1422.339)" stroke-width="1" stroke="#00251a" stroke-linecap="round" stroke-linejoin="round" fill="none"/><line y2="3.833" transform="translate(189.167 1422.339)" stroke-width="1" stroke="#00251a" stroke-linecap="round" stroke-linejoin="round" fill="none"/><line y2="3.833" transform="translate(193 1422.339)" stroke-width="1" stroke="#00251a" stroke-linecap="round" stroke-linejoin="round" fill="none"/><line y2="3.833" transform="translate(196.833 1422.339)" stroke-width="1" stroke="#00251a" stroke-linecap="round" stroke-linejoin="round" fill="none"/><line y2="3.833" transform="translate(200.667 1422.339)" stroke-width="1" stroke="#00251a" stroke-linecap="round" stroke-linejoin="round" fill="none"/><line y2="3.833" transform="translate(204.5 1422.339)" stroke-width="1" stroke="#00251a" stroke-linecap="round" stroke-linejoin="round" fill="none"/><rect width="26.833" height="19.162" transform="translate(177.667 1399.332)" stroke-width="1" stroke="#00251a" stroke-linecap="round" stroke-linejoin="round" fill="#2857e6"/><rect width="23" height="30.669" transform="translate(208.333 1384)" stroke-width="1" stroke="#00251a" stroke-linecap="round" stroke-linejoin="round" fill="#2857e6"/><rect width="23" height="11.449" transform="translate(208.333 1393.61)" stroke-width="1" stroke="#00251a" stroke-linecap="round" stroke-linejoin="round" fill="#735ce6"/><rect width="26.833" height="7.64" transform="translate(177.667 1404.951)" stroke-width="1" stroke="#00251a" stroke-linecap="round" stroke-linejoin="round" fill="#735ce6"/><rect width="19.167" height="11.505" transform="translate(154.667 1406.998)" stroke-width="1" stroke="#00251a" stroke-linecap="round" stroke-linejoin="round" fill="#2857e6"/><rect width="19.167" height="11.505" transform="translate(154.667 1391.662)" stroke-width="1" stroke="#00251a" stroke-linecap="round" stroke-linejoin="round" fill="#2857e6"/><rect width="26.833" height="19.163" transform="translate(177.667 1376.333)" stroke-width="1" stroke="#00251a" stroke-linecap="round" stroke-linejoin="round" fill="#2857e6"/><path d="M185.333,1372.5H193v-3.833H181.5Z" fill="#735ce6" stroke="#00251a" stroke-linecap="round" stroke-linejoin="round" stroke-width="1"/><path d="M214.083,1380.167h7.667v-3.833h-11.5Z" fill="#735ce6" stroke="#00251a" stroke-linecap="round" stroke-linejoin="round" stroke-width="1"/><path d="M158.5,1387.833h7.667V1384h-11.5Z" fill="#735ce6" stroke="#00251a" stroke-linecap="round" stroke-linejoin="round" stroke-width="1"/><path d="M233.891,1422.328l-24.438.005-1.12,3.839H232.61Z" fill="#2857e6" stroke="#00251a" stroke-linecap="round" stroke-linejoin="round" stroke-width="1"/><path d="M224.944,1437.667H166.928l-1.532-3.833h60.826Z" fill="#2857e6" stroke="#00251a" stroke-linecap="round" stroke-linejoin="round" stroke-width="1"/><circle cx="1.917" cy="1.917" r="1.917" transform="translate(214.083 1431.917)" fill="#735ce6" stroke="#00251a" stroke-linecap="round" stroke-linejoin="round" stroke-width="1"/><circle cx="1.917" cy="1.917" r="1.917" transform="translate(204.5 1431.917)" fill="#735ce6" stroke="#00251a" stroke-linecap="round" stroke-linejoin="round" stroke-width="1"/><circle cx="1.917" cy="1.917" r="1.917" transform="translate(194.917 1431.917)" fill="#735ce6" stroke="#00251a" stroke-linecap="round" stroke-linejoin="round" stroke-width="1"/><circle cx="1.917" cy="1.917" r="1.917" transform="translate(185.333 1431.917)" fill="#735ce6" stroke="#00251a" stroke-linecap="round" stroke-linejoin="round" stroke-width="1"/><circle cx="1.917" cy="1.917" r="1.917" transform="translate(175.75 1431.917)" fill="#735ce6" stroke="#00251a" stroke-linecap="round" stroke-linejoin="round" stroke-width="1"/><path d="M227.5,1395.506a7.666,7.666,0,1,0-11.49,6.639V1407h7.657v-4.858A7.658,7.658,0,0,0,227.5,1395.506Z" fill="#fff" stroke="#00251a" stroke-linecap="round" stroke-linejoin="round" stroke-width="1"/><path d="M216.489,1395.635l-1.659-.959a1.916,1.916,0,0,0,3.319,1.917Z" fill="#350e51" stroke="#00251a" stroke-linecap="round" stroke-linejoin="round" stroke-width="1"/><path d="M223.188,1395.635l-1.66.958a1.916,1.916,0,0,0,3.319-1.917Z" fill="#350e51" stroke="#00251a" stroke-linecap="round" stroke-linejoin="round" stroke-width="1"/><rect width="7.656" height="3.833" transform="translate(216.01 1406.997)" stroke-width="1" stroke="#00251a" stroke-linecap="round" stroke-linejoin="round" fill="#fff"/><line y2="3.823" transform="translate(218.563 1403.173)" stroke-width="1" stroke="#00251a" stroke-linecap="round" stroke-linejoin="round" fill="none"/><line y2="3.823" transform="translate(221.115 1403.173)" stroke-width="1" stroke="#00251a" stroke-linecap="round" stroke-linejoin="round" fill="none"/><line y2="1.774" transform="translate(218.562 1406.997)" stroke-width="1" stroke="#00251a" stroke-linecap="round" stroke-linejoin="round" fill="none"/><line y2="1.774" transform="translate(221.114 1406.997)" stroke-width="1" stroke="#00251a" stroke-linecap="round" stroke-linejoin="round" fill="none"/><rect width="26.833" height="7.64" transform="translate(177.667 1382.097)" stroke-width="1" stroke="#00251a" stroke-linecap="round" stroke-linejoin="round" fill="#735ce6"/><rect width="19.167" height="3.82" transform="translate(154.667 1395.515)" stroke-width="1" stroke="#00251a" stroke-linecap="round" stroke-linejoin="round" fill="#735ce6"/><rect width="19.167" height="3.82" transform="translate(154.667 1410.84)" stroke-width="1" stroke="#00251a" stroke-linecap="round" stroke-linejoin="round" fill="#735ce6"/><path d="M224.944,1437.667H166.928l3.068,7.679,7.67-3.846,7.667,3.846,7.672-3.846,7.662,3.862,7.666-3.862,7.67,3.846,7.663-3.846Z" fill="#735ce6" stroke="#00251a" stroke-linecap="round" stroke-linejoin="round" stroke-width="1"/><path d="M210.571,1418.5l-1.118,3.831,24.438-.005,1.275-3.825Z" fill="#735ce6" stroke="#00251a" stroke-linecap="round" stroke-linejoin="round" stroke-width="1"/></g><rect width="92" height="92" fill="none"/></g></svg>