<?xml version="1.0" encoding="utf-8"?>
<!-- Generator: Adobe Illustrator 20.0.0, SVG Export Plug-In . SVG Version: 6.00 Build 0)  -->
<svg version="1.1" id="圖層_1" xmlns="http://www.w3.org/2000/svg" xmlns:xlink="http://www.w3.org/1999/xlink" x="0px" y="0px"
	 viewBox="0 0 92 92" style="enable-background:new 0 0 92 92;" xml:space="preserve">
<style type="text/css">
	.st0{clip-path:url(#SVGID_2_);}
	.st1{fill:none;}
	.st2{fill:#F4C42C;stroke:#00251A;stroke-linecap:round;stroke-linejoin:round;}
</style>
<g>
	<defs>
		<rect id="SVGID_1_" width="92" height="92"/>
	</defs>
	<clipPath id="SVGID_2_">
		<use xlink:href="#SVGID_1_"  style="overflow:visible;"/>
	</clipPath>
	<g id="a" class="st0">
		<g transform="translate(-32 -1180)">
			<rect x="32" y="1180" class="st1" width="92" height="92"/>
			<path class="st2" d="M53.6,1250.4l-8.6,2.3l6.3,6.3L53.6,1250.4z"/>
			<path class="st2" d="M102.5,1250.4l2.3,8.6l6.3-6.3L102.5,1250.4z"/>
			<path class="st2" d="M102.4,1201.6l8.6-2.3l-6.3-6.3L102.4,1201.6z"/>
			<path class="st2" d="M53.6,1201.6l-2.3-8.6l-6.3,6.3L53.6,1201.6z"/>
			<path class="st2" d="M76.1,1191.6v11.4h3.8v-11.4c6.5,0.3,12.8,2.5,18.1,6.3l2.7-2.8c-13.5-10-31.9-10-45.5,0l2.7,2.8
				C63.3,1194.1,69.6,1191.9,76.1,1191.6z"/>
			<path class="st2" d="M79.9,1260.4V1249h-3.8v11.4c-6.5-0.3-12.8-2.5-18.1-6.3l-2.7,2.8c13.5,10,31.9,10,45.5,0l-2.7-2.8
				C92.7,1257.9,86.4,1260,79.9,1260.4z"/>
			<path class="st2" d="M55,1227.9v-3.8H43.6c0.3-6.5,2.5-12.8,6.3-18.1l-2.8-2.8c-10,13.5-10,31.9,0,45.5l2.8-2.8
				c-3.8-5.3-6-11.6-6.3-18.1H55z"/>
			<path class="st2" d="M101,1224.1v3.8h11.4c-0.3,6.5-2.5,12.8-6.3,18.1l2.8,2.8c10-13.5,10-31.9,0-45.5l-2.8,2.8
				c3.8,5.3,6,11.6,6.3,18.1H101z"/>
			<path class="st2" d="M72.3,1252.2c-10.2-2.2-18.2-10.2-20.5-20.5h-3.9c2.4,12.4,12,22,24.4,24.4V1252.2z"/>
			<path class="st2" d="M83.8,1199.8c10.2,2.2,18.2,10.2,20.5,20.5h3.9c-2.4-12.4-12-22-24.4-24.4V1199.8z"/>
			<path class="st2" d="M83.8,1256.1c12.4-2.4,22-12,24.4-24.4h-3.9c-2.2,10.2-10.2,18.2-20.5,20.5V1256.1z"/>
			<path class="st2" d="M72.3,1195.9c-12.4,2.4-22,12-24.4,24.4h3.9C54,1210,62,1202,72.3,1199.8V1195.9z"/>
			<path class="st2" d="M84.8,1230l-4.1-4.1l4.1-4.1l-2.7-2.7l-4.1,4.1l-4.1-4.1l-2.7,2.7l4.1,4.1l-4.1,4.1l2.7,2.7l4.1-4.1l4.1,4.1
				L84.8,1230z"/>
		</g>
	</g>
</g>
</svg>
