<svg xmlns="http://www.w3.org/2000/svg" xmlns:xlink="http://www.w3.org/1999/xlink" width="1920" height="1080" viewBox="0 0 1920 1080"><defs><linearGradient id="a" x1="0.5" y1="1" x2="0.5" gradientUnits="objectBoundingBox"><stop offset="0" stop-color="#9fffe0" stop-opacity="0"/><stop offset="1" stop-color="#9fffe0"/></linearGradient><radialGradient id="b" cx="164.181" cy="164.181" r="164.181" xlink:href="#a"/><radialGradient id="c" cx="105.767" cy="105.767" r="105.767" xlink:href="#a"/><clipPath id="e"><rect width="1920" height="1080"/></clipPath></defs><g id="d" clip-path="url(#e)"><g transform="translate(-32 -2221)"><rect width="1123.97" height="630.905" transform="translate(430.015 2482.08)" stroke-width="1" stroke="#00251a" stroke-linecap="round" stroke-linejoin="round" fill="#2bbd7e"/><rect width="594.904" height="1087.97" transform="translate(1535.985 2500.081) rotate(90)" stroke-width="1" stroke="#00251a" stroke-linecap="round" stroke-linejoin="round" fill="#69f0ae"/><path d="M1535.92,3044.2a121,121,0,0,1-108.707.081h0l-.063.032a121,121,0,0,1-108.67-.1l-.087-.044-.049.025a120.533,120.533,0,0,1-108.7,0l-.048-.025-.088.044a121,121,0,0,1-108.67.1l-.062-.032h0a121,121,0,0,1-108.707-.081l-.066-.033-.065.033a121,121,0,0,1-108.707.081h0l-.063.032a121,121,0,0,1-108.67-.1l-.087-.044-.049.025a120.533,120.533,0,0,1-108.7,0l-.049-.025-.087.044a121,121,0,0,1-108.67.1l-.062-.032h0a121,121,0,0,1-108.707-.081l-.066-.033v50.821h1087.97v-50.821Z" fill="none" stroke="#9fffe0" stroke-miterlimit="10" stroke-width="1"/><path d="M1535.92,3057.178a121,121,0,0,1-108.707.081h0l-.063.032a121,121,0,0,1-108.67-.1l-.087-.044-.049.025a120.541,120.541,0,0,1-108.7,0l-.048-.025-.088.044a121,121,0,0,1-108.67.1l-.062-.032h0a121,121,0,0,1-108.707-.081l-.066-.033-.065.033a121,121,0,0,1-108.707.081h0l-.063.032a121,121,0,0,1-108.67-.1l-.087-.044-.049.025a120.541,120.541,0,0,1-108.7,0l-.049-.025-.087.044a121,121,0,0,1-108.67.1l-.062-.032h0a121,121,0,0,1-108.707-.081l-.066-.033v37.84h1087.97v-37.84Z" opacity="0.5" fill="url(#a)"/><rect width="594.904" height="1087.97" transform="translate(1535.985 2500.081) rotate(90)" stroke-width="1" stroke="#00251a" stroke-linecap="round" stroke-linejoin="round" fill="none"/><path d="M422,3076.681V3121h44.319Z" fill="#69f0ae" stroke="#00251a" stroke-linecap="round" stroke-linejoin="round" stroke-width="1"/><path d="M458.3,3112.985V3084.7H430.015Z" fill="#9fffe0" stroke="#00251a" stroke-linecap="round" stroke-linejoin="round" stroke-width="1"/><rect width="15.664" height="15.664" transform="translate(433.08 3094.256)" stroke-width="1" stroke="#00251a" stroke-linecap="round" stroke-linejoin="round" fill="#fff"/><path d="M1562,3076.681V3121h-44.319Z" fill="#69f0ae" stroke="#00251a" stroke-linecap="round" stroke-linejoin="round" stroke-width="1"/><path d="M1525.7,3112.985V3084.7h28.289Z" fill="#9fffe0" stroke="#00251a" stroke-linecap="round" stroke-linejoin="round" stroke-width="1"/><rect width="15.664" height="15.664" transform="translate(1550.92 3109.92) rotate(180)" stroke-width="1" stroke="#00251a" stroke-linecap="round" stroke-linejoin="round" fill="#fff"/><path d="M422,2518.348V2474.03h44.319Z" fill="#69f0ae" stroke="#00251a" stroke-linecap="round" stroke-linejoin="round" stroke-width="1"/><path d="M458.3,2482.044v28.289H430.015Z" fill="#9fffe0" stroke="#00251a" stroke-linecap="round" stroke-linejoin="round" stroke-width="1"/><rect width="15.664" height="15.664" transform="translate(433.08 2485.109)" stroke-width="1" stroke="#00251a" stroke-linecap="round" stroke-linejoin="round" fill="#fff"/><path d="M1562,2518.348V2474.03h-44.319Z" fill="#69f0ae" stroke="#00251a" stroke-linecap="round" stroke-linejoin="round" stroke-width="1"/><path d="M1525.7,2482.044v28.289h28.289Z" fill="#9fffe0" stroke="#00251a" stroke-linecap="round" stroke-linejoin="round" stroke-width="1"/><rect width="15.664" height="15.664" transform="translate(1550.92 2500.774) rotate(180)" stroke-width="1" stroke="#00251a" stroke-linecap="round" stroke-linejoin="round" fill="#fff"/><rect width="232.534" height="79.737" transform="translate(759.399 2520.289)" stroke-width="1" stroke="#00251a" stroke-linecap="round" stroke-linejoin="round" fill="#9fffe0"/><line y1="1.138" x2="232.534" transform="translate(759.399 2558.895)" stroke-width="1" stroke="#00251a" stroke-linecap="round" stroke-linejoin="round" fill="none"/><rect width="232.534" height="79.737" transform="translate(1224.601 2600.026) rotate(-180)" stroke-width="1" stroke="#00251a" stroke-linecap="round" stroke-linejoin="round" fill="#9fffe0"/><line x1="232.534" y1="1.138" transform="translate(992.067 2558.895)" stroke-width="1" stroke="#00251a" stroke-linecap="round" stroke-linejoin="round" fill="none"/><circle cx="164.181" cy="164.181" r="164.181" transform="translate(827.819 2401)" opacity="0.5" fill="url(#b)"/><path d="M1115.788,2633.764l2.184,3.993,3.993,2.184-3.993,2.184-2.184,3.993-2.184-3.993-3.993-2.184,3.993-2.184Z" fill="#9fffe0"/><path d="M935.521,2439.522l1.478,2.7,2.7,1.478-2.7,1.478-1.478,2.7-1.478-2.7-2.7-1.478,2.7-1.478Z" fill="#9fffe0"/><path d="M832,2493.433l1.478,2.7,2.7,1.478-2.7,1.478-1.478,2.7-1.478-2.7-2.7-1.478,2.7-1.478Z" fill="#9fffe0"/><path d="M906.275,2660.16l3.814,6.974,6.974,3.814-6.974,3.814-3.814,6.973-3.814-6.973-6.974-3.814,6.974-3.814Z" fill="#9fffe0"/><path d="M1115.788,2449.832l3.814,6.974,6.974,3.814-6.974,3.814-3.814,6.973-3.814-6.973L1105,2460.62l6.974-3.814Z" fill="#9fffe0"/><circle cx="105.767" cy="105.767" r="105.767" transform="translate(886.233 2459.414)" opacity="0.5" fill="url(#c)"/><path d="M883.2,2569.514l-1.335-18.689a2.031,2.031,0,0,1,3.888-.567h0l8.014-16.816a2.032,2.032,0,0,1,3.819.438l.158.72,11.356-13.46a2.032,2.032,0,0,1,3.585,1.31v.52l18.391-13.663a2.032,2.032,0,0,1,3.157,2.218l-.266.881,19.6-10.307a2.032,2.032,0,0,1,2.925,2.259l-.3,1.287,23.315-6.065a2.033,2.033,0,0,1,2.725,1.493l.612,3.035Z" fill="#69f0ae" stroke="#00251a" stroke-linecap="round" stroke-linejoin="round" stroke-width="1"/><path d="M1100.8,2569.514l1.335-18.689a2.031,2.031,0,0,0-3.888-.567h0l-8.014-16.816a2.032,2.032,0,0,0-3.819.438l-.158.72-11.356-13.46a2.032,2.032,0,0,0-3.585,1.31v.52l-18.391-13.663a2.032,2.032,0,0,0-3.157,2.218l.266.881-19.6-10.307a2.032,2.032,0,0,0-2.925,2.259l.3,1.287-23.315-6.065a2.033,2.033,0,0,0-2.725,1.493l-.612,3.035Z" fill="#69f0ae" stroke="#00251a" stroke-linecap="round" stroke-linejoin="round" stroke-width="1"/><path d="M992,2482.793l-10.84,21.793h21.679Z" fill="#004d40" stroke="#00251a" stroke-linecap="round" stroke-linejoin="round" stroke-width="1"/><path d="M992,2504.108c-59.283,0-118.965,33.036-107.341,81.57,5.651,23.592,56.533,34.893,107.338,35.1H992c50.8-.21,101.687-11.511,107.338-35.1C1110.965,2537.144,1051.283,2504.108,992,2504.108Z" fill="#004d40" stroke="#00251a" stroke-linecap="round" stroke-linejoin="round" stroke-width="1"/><path d="M992,2507.814c-54.554,0-109.475,30.4-98.778,75.064,5.2,21.709,52.023,32.109,98.775,32.3H992c46.752-.194,93.575-10.594,98.775-32.3C1101.476,2538.215,1046.554,2507.814,992,2507.814Z" fill="#2bbd7e" stroke="#00251a" stroke-linecap="round" stroke-linejoin="round" stroke-width="1"/><rect width="204.856" height="23.59" transform="translate(889.572 2599.781)" stroke-width="1" stroke="#00251a" stroke-linecap="round" stroke-linejoin="round" fill="#69f0ae"/><path d="M930.534,2557.521l-15.527,40.895H946.06Z" fill="#004d40" stroke="#00251a" stroke-linecap="round" stroke-linejoin="round" stroke-width="1"/><path d="M930.534,2544.05l4.763,8.708,8.708,4.763-8.708,4.763-4.763,8.708-4.763-8.708-8.708-4.763,8.708-4.763Z" fill="#9fffe0" stroke="#00251a" stroke-linecap="round" stroke-linejoin="round" stroke-width="1"/><line y1="20.121" transform="translate(930.534 2570.992)" stroke-width="1" stroke="#00251a" stroke-linecap="round" stroke-linejoin="round" fill="none"/><rect width="5.545" height="5.545" transform="translate(930.534 2553.6) rotate(45)" stroke-width="1" stroke="#00251a" stroke-linecap="round" stroke-linejoin="round" fill="#69f0ae"/><path d="M1053.333,2557.521l-15.526,40.895h31.053Z" fill="#004d40" stroke="#00251a" stroke-linecap="round" stroke-linejoin="round" stroke-width="1"/><path d="M1053.333,2544.05l4.763,8.708,8.708,4.763-8.708,4.763-4.763,8.708-4.763-8.708-8.708-4.763,8.708-4.763Z" fill="#9fffe0" stroke="#00251a" stroke-linecap="round" stroke-linejoin="round" stroke-width="1"/><line y1="20.121" transform="translate(1053.333 2570.992)" stroke-width="1" stroke="#00251a" stroke-linecap="round" stroke-linejoin="round" fill="none"/><rect width="5.545" height="5.545" transform="translate(1053.333 2553.6) rotate(45)" stroke-width="1" stroke="#00251a" stroke-linecap="round" stroke-linejoin="round" fill="#69f0ae"/><path d="M992,2591.488a36.3,36.3,0,0,1-20.468-6.585l-.018-.012-.033.022c-12.868,8.752-28.044,8.772-40.924.052l-.023-.016c-12.361,8.376-33.74,9.922-34.907-6.326l-29.042-21.281,27.439,66.029H992Z" fill="#9fffe0" stroke="#00251a" stroke-linecap="round" stroke-linejoin="round" stroke-width="1"/><path d="M992,2591.488a36.3,36.3,0,0,0,20.468-6.585l.018-.012.033.022c12.868,8.752,28.044,8.772,40.924.052l.023-.016c12.361,8.376,33.74,9.922,34.907-6.326l29.042-21.281-27.439,66.029H992Z" fill="#9fffe0" stroke="#00251a" stroke-linecap="round" stroke-linejoin="round" stroke-width="1"/><path d="M1094.428,2594.871l-.024.013a45.568,45.568,0,0,1-40.938.03h0l-.023.012a45.568,45.568,0,0,1-40.924-.038l-.033-.017-.018.01a45.4,45.4,0,0,1-40.936,0l-.018-.01-.033.017a45.568,45.568,0,0,1-40.924.038l-.023-.012h0a45.567,45.567,0,0,1-40.938-.03l-.024-.013-4.628,15.207,4.628,13.293h204.856l4.628-13.293Z" fill="#69f0ae" stroke="#00251a" stroke-linecap="round" stroke-linejoin="round" stroke-width="1"/><rect width="204.856" height="4.031" transform="translate(889.572 2623.371)" stroke-width="1" stroke="#00251a" stroke-linecap="round" stroke-linejoin="round" fill="#004d40"/><path d="M992,2466.691l5.693,10.409,10.409,5.693-10.409,5.693L992,2498.895l-5.693-10.409-10.409-5.693,10.409-5.693Z" fill="#69f0ae" stroke="#00251a" stroke-linecap="round" stroke-linejoin="round" stroke-width="1"/><path d="M1003.386,2471.407l-3.335,11.386,3.335,11.386L992,2490.844l-11.386,3.335,3.335-11.386-3.335-11.386L992,2474.742Z" fill="#fff" stroke="#00251a" stroke-linecap="round" stroke-linejoin="round" stroke-width="1"/><path d="M1003.386,2482.793l-7.36,4.025-4.025,7.36-4.025-7.36-7.36-4.025,7.36-4.025,4.025-7.36,4.025,7.36Z" fill="#9fffe0" stroke="#00251a" stroke-linecap="round" stroke-linejoin="round" stroke-width="1"/><path d="M974.171,2615.655l-89.227-5.577,4.628,13.293h204.856l4.628-13.293-89.232,5.577L992,2610.078Z" fill="#2bbd7e" stroke="#00251a" stroke-linecap="round" stroke-linejoin="round" stroke-width="1"/><path d="M992,2599.388l4.457,3.4,13.37,12.865L992,2610.509l-17.827,5.146,13.37-12.865Z" fill="#9fffe0" stroke="#00251a" stroke-linecap="round" stroke-linejoin="round" stroke-width="1"/><path d="M992,2568.933l-9.227-7.045-27.681-26.636L992,2545.907l36.908-10.655-27.681,26.636Z" fill="#004d40" stroke="#00251a" stroke-linecap="round" stroke-linejoin="round" stroke-width="1"/><circle cx="2.557" cy="2.557" r="2.557" transform="translate(989.443 2480.236)" fill="#2bbd7e" stroke="#00251a" stroke-linecap="round" stroke-linejoin="round" stroke-width="1"/><path d="M997.633,2599.781h0L992,2557.151l-5.633,42.63h0l5.633,10.3,5.633-10.3h0Z" fill="#004d40" stroke="#00251a" stroke-linecap="round" stroke-linejoin="round" stroke-width="1"/><circle cx="5.633" cy="5.633" r="5.633" transform="translate(986.367 2604.445)" fill="#69f0ae" stroke="#00251a" stroke-linecap="round" stroke-linejoin="round" stroke-width="1"/><circle cx="2.557" cy="2.557" r="2.557" transform="translate(989.443 2607.521)" fill="#004d40" stroke="#00251a" stroke-linecap="round" stroke-linejoin="round" stroke-width="1"/><path d="M1003.892,2578.1,992,2574.616l-11.892,3.483,3.483-11.891-3.483-11.892L992,2557.8l11.892-3.483-3.483,11.892Z" fill="#004d40" stroke="#00251a" stroke-linecap="round" stroke-linejoin="round" stroke-width="1"/><circle cx="24.815" cy="24.815" r="24.815" transform="translate(967.185 2526.065)" fill="#9fffe0" stroke="#00251a" stroke-linecap="round" stroke-linejoin="round" stroke-width="1"/><circle cx="13.579" cy="13.579" r="13.579" transform="translate(978.421 2537.333)" fill="#69f0ae" stroke="#00251a" stroke-linecap="round" stroke-linejoin="round" stroke-width="1"/><circle cx="10.825" cy="10.825" r="10.825" transform="translate(981.175 2518.678)" fill="#004d40" stroke="#00251a" stroke-linecap="round" stroke-linejoin="round" stroke-width="1"/><circle cx="3.501" cy="3.501" r="3.501" transform="translate(927.032 2591.413)" fill="#2bbd7e" stroke="#00251a" stroke-linecap="round" stroke-linejoin="round" stroke-width="1"/><circle cx="3.501" cy="3.501" r="3.501" transform="translate(967.965 2591.413)" fill="#2bbd7e" stroke="#00251a" stroke-linecap="round" stroke-linejoin="round" stroke-width="1"/><circle cx="3.501" cy="3.501" r="3.501" transform="translate(1008.898 2591.413)" fill="#2bbd7e" stroke="#00251a" stroke-linecap="round" stroke-linejoin="round" stroke-width="1"/><circle cx="3.501" cy="3.501" r="3.501" transform="translate(1049.831 2591.413)" fill="#2bbd7e" stroke="#00251a" stroke-linecap="round" stroke-linejoin="round" stroke-width="1"/><circle cx="3.501" cy="3.501" r="3.501" transform="translate(1090.764 2591.413)" fill="#2bbd7e" stroke="#00251a" stroke-linecap="round" stroke-linejoin="round" stroke-width="1"/><circle cx="3.501" cy="3.501" r="3.501" transform="translate(886.07 2591.413)" fill="#2bbd7e" stroke="#00251a" stroke-linecap="round" stroke-linejoin="round" stroke-width="1"/><path d="M1009.311,2530.948l-11.191,6.12-6.12,11.19-6.12-11.19-11.191-6.12,11.191-6.12,6.12-11.19,6.12,11.19Z" fill="#9fffe0" stroke="#00251a" stroke-linecap="round" stroke-linejoin="round" stroke-width="1"/><circle cx="5.412" cy="5.412" r="5.412" transform="translate(986.588 2545.459)" fill="#69f0ae" stroke="#00251a" stroke-linecap="round" stroke-linejoin="round" stroke-width="1"/><path d="M992,2520.289l11.122,20.337,20.337,11.122-20.337,11.123L992,2583.207l-11.122-20.336-20.337-11.123,20.337-11.122Z" fill="#69f0ae" stroke="#00251a" stroke-linecap="round" stroke-linejoin="round" stroke-width="1"/><path d="M1014.245,2529.5l-6.515,22.245,6.515,22.245L992,2567.477l-22.245,6.515,6.515-22.245-6.515-22.245L992,2536.018Z" fill="#69f0ae" stroke="#00251a" stroke-linecap="round" stroke-linejoin="round" stroke-width="1"/><path d="M1014.245,2551.748l-14.38,7.865L992,2573.992l-7.865-14.38-14.38-7.865,14.38-7.865L992,2529.5l7.865,14.38Z" fill="#fff" stroke="#00251a" stroke-linecap="round" stroke-linejoin="round" stroke-width="1"/><line y2="44.49" transform="translate(992 2529.503)" stroke-width="1" stroke="#00251a" stroke-linecap="round" stroke-linejoin="round" fill="none"/><line x2="44.49" transform="translate(969.755 2551.748)" stroke-width="1" stroke="#00251a" stroke-linecap="round" stroke-linejoin="round" fill="none"/><rect width="5.545" height="5.545" transform="translate(991.933 2548.172) rotate(45)" stroke-width="1" stroke="#00251a" stroke-linecap="round" stroke-linejoin="round" fill="#69f0ae"/><path d="M930.534,2544.05s3.092-22.061,30.007-32.735" fill="#2bbd7e" stroke="#00251a" stroke-linecap="round" stroke-linejoin="round" stroke-width="1"/><path d="M1053.466,2544.05s-3.092-22.061-30.007-32.735" fill="#2bbd7e" stroke="#00251a" stroke-linecap="round" stroke-linejoin="round" stroke-width="1"/><line y1="5.823" transform="translate(992 2507.814)" stroke-width="1" stroke="#00251a" stroke-linecap="round" stroke-linejoin="round" fill="none"/><path d="M719.722,2606.859h-253.4l34.441-34.137-34.441-34.137h253.4Z" fill="#9fffe0" stroke="#00251a" stroke-linecap="round" stroke-linejoin="round" stroke-width="1"/><path d="M759.4,2520.289v77.624l83.456,28.218V2556.25Z" fill="#69f0ae" stroke="#00251a" stroke-linecap="round" stroke-linejoin="round" stroke-width="1"/><path d="M719.722,2538.584,675.4,2556.25v69.881l44.319-19.272Z" fill="#69f0ae" stroke="#00251a" stroke-linecap="round" stroke-linejoin="round" stroke-width="1"/><rect width="167.452" height="69.881" transform="translate(675.404 2556.25)" stroke-width="1" stroke="#00251a" stroke-linecap="round" stroke-linejoin="round" fill="#9fffe0"/><line x1="167.452" transform="translate(675.404 2591.113)" stroke-width="1" stroke="#00251a" stroke-linecap="round" stroke-linejoin="round" fill="none"/><line x2="174.644" transform="translate(500.76 2572.722)" stroke-width="1" stroke="#00251a" stroke-linecap="round" stroke-linejoin="round" fill="none"/><path d="M1264.278,2606.859h253.4l-34.441-34.137,34.441-34.137h-253.4Z" fill="#9fffe0" stroke="#00251a" stroke-linecap="round" stroke-linejoin="round" stroke-width="1"/><path d="M1224.6,2520.289v77.624l-83.456,28.218V2556.25Z" fill="#69f0ae" stroke="#00251a" stroke-linecap="round" stroke-linejoin="round" stroke-width="1"/><path d="M1264.278,2538.584l44.319,17.666v69.881l-44.319-19.272Z" fill="#69f0ae" stroke="#00251a" stroke-linecap="round" stroke-linejoin="round" stroke-width="1"/><rect width="167.452" height="69.881" transform="translate(1308.596 2626.131) rotate(-180)" stroke-width="1" stroke="#00251a" stroke-linecap="round" stroke-linejoin="round" fill="#9fffe0"/><line x2="167.452" transform="translate(1141.145 2591.113)" stroke-width="1" stroke="#00251a" stroke-linecap="round" stroke-linejoin="round" fill="none"/><line x1="174.644" transform="translate(1308.596 2572.722)" stroke-width="1" stroke="#00251a" stroke-linecap="round" stroke-linejoin="round" fill="none"/></g></g></svg>