<svg xmlns="http://www.w3.org/2000/svg" xmlns:xlink="http://www.w3.org/1999/xlink" width="92" height="92" viewBox="0 0 92 92"><defs><clipPath id="b"><rect width="92" height="92"/></clipPath></defs><g id="a" clip-path="url(#b)"><g transform="translate(-265 -1361)"><rect width="3.833" height="38.321" transform="translate(322.41 1380.174)" stroke-width="1" stroke="#00251a" stroke-linecap="round" stroke-linejoin="round" fill="#00251a"/><rect width="19.647" height="11.495" transform="translate(314.504 1403.029)" stroke-width="1" stroke="#00251a" stroke-linecap="round" stroke-linejoin="round" fill="#69f0ae"/><rect width="19.647" height="11.495" transform="translate(314.504 1387.952)" stroke-width="1" stroke="#00251a" stroke-linecap="round" stroke-linejoin="round" fill="#69f0ae"/><rect width="3.833" height="53.667" transform="translate(299.534 1372.506)" stroke-width="1" stroke="#00251a" stroke-linecap="round" stroke-linejoin="round" fill="#00251a"/><rect width="19.179" height="11.491" transform="translate(291.861 1406.997)" stroke-width="1" stroke="#00251a" stroke-linecap="round" stroke-linejoin="round" fill="#9fffe0"/><rect width="19.179" height="11.491" transform="translate(291.861 1391.678)" stroke-width="1" stroke="#00251a" stroke-linecap="round" stroke-linejoin="round" fill="#9fffe0"/><rect width="19.179" height="11.491" transform="translate(291.861 1376.357)" stroke-width="1" stroke="#00251a" stroke-linecap="round" stroke-linejoin="round" fill="#9fffe0"/><path d="M295.7,1372.506h7.667v-3.833h-11.5Z" fill="#fff" stroke="#00251a" stroke-linecap="round" stroke-linejoin="round" stroke-width="1"/><rect width="3.833" height="38.321" transform="translate(280.363 1384.006)" stroke-width="1" stroke="#00251a" stroke-linecap="round" stroke-linejoin="round" fill="#00251a"/><rect width="11.488" height="7.663" transform="translate(276.535 1387.831)" stroke-width="1" stroke="#00251a" stroke-linecap="round" stroke-linejoin="round" fill="#69f0ae"/><rect width="11.488" height="7.663" transform="translate(276.535 1399.324)" stroke-width="1" stroke="#00251a" stroke-linecap="round" stroke-linejoin="round" fill="#69f0ae"/><rect width="11.488" height="7.663" transform="translate(276.535 1410.815)" stroke-width="1" stroke="#00251a" stroke-linecap="round" stroke-linejoin="round" fill="#69f0ae"/><path d="M276.529,1384.006H284.2v-3.833H272.7Z" fill="#fff" stroke="#00251a" stroke-linecap="round" stroke-linejoin="round" stroke-width="1"/><rect width="3.833" height="38.321" transform="translate(337.613 1372.538)" stroke-width="1" stroke="#00251a" stroke-linecap="round" stroke-linejoin="round" fill="#00251a"/><rect width="19.647" height="11.495" transform="translate(329.707 1395.502)" stroke-width="1" stroke="#00251a" stroke-linecap="round" stroke-linejoin="round" fill="#9fffe0"/><rect width="19.647" height="11.495" transform="translate(329.707 1380.173)" stroke-width="1" stroke="#00251a" stroke-linecap="round" stroke-linejoin="round" fill="#9fffe0"/><path d="M349.35,1445.368l-7.667-3.862-7.663,3.846-7.67-3.846-7.666,3.862-7.662-3.862-7.672,3.846-7.667-3.846-7.67,3.846-7.663-3.846-7.667,3.862" fill="none" stroke="#00251a" stroke-linecap="round" stroke-linejoin="round" stroke-width="1"/><path d="M353.187,1437.672V1430l-3.833-3.839,3.833-15.337-19.167,0-7.667,7.66H318.68l-7.663,7.673H268.853V1430l7.667-.005v7.676l3.83,3.833,7.663,3.846,7.67-3.846,7.667,3.846,7.672-3.846,7.662,3.862,7.666-3.862,7.67,3.846,7.663-3.846,3.833,1.931Z" fill="#2bbd7e" stroke="#00251a" stroke-linecap="round" stroke-linejoin="round" stroke-width="1"/><line x2="26.83" y2="0.004" transform="translate(288.024 1422.325)" stroke-width="1" stroke="#00251a" stroke-linecap="round" stroke-linejoin="round" fill="#69f0ae"/><line x1="0.003" y1="3.839" transform="translate(288.024 1422.325)" stroke-width="1" stroke="#00251a" stroke-linecap="round" stroke-linejoin="round" fill="#69f0ae"/><line x1="0.003" y1="3.839" transform="translate(291.859 1422.325)" stroke-width="1" stroke="#00251a" stroke-linecap="round" stroke-linejoin="round" fill="#69f0ae"/><line x1="0.003" y1="3.839" transform="translate(295.694 1422.325)" stroke-width="1" stroke="#00251a" stroke-linecap="round" stroke-linejoin="round" fill="#69f0ae"/><line x1="0.003" y1="3.839" transform="translate(299.529 1422.325)" stroke-width="1" stroke="#00251a" stroke-linecap="round" stroke-linejoin="round" fill="#69f0ae"/><line x1="0.003" y1="3.839" transform="translate(303.364 1422.325)" stroke-width="1" stroke="#00251a" stroke-linecap="round" stroke-linejoin="round" fill="#69f0ae"/><line x1="0.003" y1="3.839" transform="translate(307.199 1422.325)" stroke-width="1" stroke="#00251a" stroke-linecap="round" stroke-linejoin="round" fill="#69f0ae"/><rect width="15.341" height="3.838" transform="translate(272.683 1422.325)" stroke-width="1" stroke="#00251a" stroke-linecap="round" stroke-linejoin="round" fill="#2bbd7e"/><rect width="76.667" height="5.75" transform="translate(276.52 1430)" stroke-width="1" stroke="#00251a" stroke-linecap="round" stroke-linejoin="round" fill="#9fffe0"/><circle cx="1.923" cy="1.923" r="1.923" transform="translate(322.508 1433.827)" fill="#69f0ae" stroke="#00251a" stroke-linecap="round" stroke-linejoin="round" stroke-width="1"/><circle cx="1.923" cy="1.923" r="1.923" transform="translate(314.853 1433.827)" fill="#69f0ae" stroke="#00251a" stroke-linecap="round" stroke-linejoin="round" stroke-width="1"/><circle cx="1.923" cy="1.923" r="1.923" transform="translate(307.187 1433.827)" fill="#69f0ae" stroke="#00251a" stroke-linecap="round" stroke-linejoin="round" stroke-width="1"/><circle cx="1.923" cy="1.923" r="1.923" transform="translate(330.187 1433.827)" fill="#69f0ae" stroke="#00251a" stroke-linecap="round" stroke-linejoin="round" stroke-width="1"/><circle cx="1.923" cy="1.923" r="1.923" transform="translate(337.853 1433.827)" fill="#69f0ae" stroke="#00251a" stroke-linecap="round" stroke-linejoin="round" stroke-width="1"/><circle cx="1.923" cy="1.923" r="1.923" transform="translate(345.264 1433.827)" fill="#69f0ae" stroke="#00251a" stroke-linecap="round" stroke-linejoin="round" stroke-width="1"/><path d="M318.672,1426.172l30.682-.009,3.833-15.337-19.167,0Z" fill="#2bbd7e" stroke="#00251a" stroke-linecap="round" stroke-linejoin="round" stroke-width="1"/><path d="M326.353,1418.49H318.68l-7.663,7.673H268.853V1430l46-.005Z" fill="#69f0ae" stroke="#00251a" stroke-linecap="round" stroke-linejoin="round" stroke-width="1"/><path d="M333.777,1376.339h7.667v-3.833h-11.5Z" fill="#fff" stroke="#00251a" stroke-linecap="round" stroke-linejoin="round" stroke-width="1"/><path d="M318.577,1384.019h7.667v-3.833h-11.5Z" fill="#fff" stroke="#00251a" stroke-linecap="round" stroke-linejoin="round" stroke-width="1"/><path d="M289.945,1432.448h-3.818l-1.909,3.306,1.909,3.306h3.818l1.909-3.306Z" fill="#fff" stroke="#00251a" stroke-linecap="round" stroke-linejoin="round" stroke-width="1"/><path d="M343.461,1418.673l-1.823,3.185a.457.457,0,0,1-.286.167h-3.644a.457.457,0,0,1-.286-.167l-1.822-3.185a.469.469,0,0,1,0-.334l1.822-3.186a.46.46,0,0,1,.286-.166h3.644a.46.46,0,0,1,.286.166l1.823,3.186a.469.469,0,0,1,0,.334m.778-.653-1.938-3.387a1.067,1.067,0,0,0-.833-.486h-3.876a1.067,1.067,0,0,0-.833.486l-1.938,3.387a1.091,1.091,0,0,0,0,.971l1.938,3.388a1.066,1.066,0,0,0,.833.485h3.876a1.066,1.066,0,0,0,.833-.485l1.938-3.388a1.084,1.084,0,0,0,0-.971" fill="#00251a"/><rect width="2.88" height="0.617" transform="translate(336.651 1418.563)" fill="#00251a"/><rect width="2.315" height="0.617" transform="translate(337.215 1419.669)" fill="#00251a"/><rect width="1.75" height="0.617" transform="translate(337.78 1420.775)" fill="#00251a"/><path d="M353.187,1430,314.853,1430l3.818-3.824,30.682-.009Z" fill="#004d40" stroke="#00251a" stroke-linecap="round" stroke-linejoin="round" stroke-width="1"/></g><rect width="92" height="92" fill="none"/></g></svg>