<?xml version="1.0" encoding="utf-8"?>
<!-- Generator: Adobe Illustrator 20.0.0, SVG Export Plug-In . SVG Version: 6.00 Build 0)  -->
<svg version="1.1" id="圖層_1" xmlns="http://www.w3.org/2000/svg" xmlns:xlink="http://www.w3.org/1999/xlink" x="0px" y="0px"
	 viewBox="0 0 1920 1080" style="enable-background:new 0 0 1920 1080;" xml:space="preserve">
<style type="text/css">
	.st0{clip-path:url(#SVGID_2_);}
	.st1{fill:#FFFFFF;}
	.st2{fill:#9FFFE0;}
	.st3{fill:#00251A;}
	.st4{clip-path:url(#SVGID_5_);}
	.st5{clip-path:url(#SVGID_6_);}
	.st6{fill:#004D40;}
	.st7{fill:none;stroke:#00251A;stroke-width:2;stroke-linecap:round;stroke-linejoin:round;}
	.st8{fill:#2BBD7E;}
	.st9{fill:#69F0AE;stroke:#00251A;stroke-width:2;stroke-linecap:round;stroke-linejoin:round;}
	.st10{fill:#69F0AE;}
	.st11{fill:#39796B;}
	
		.st12{fill:none;stroke:#00251A;stroke-width:2;stroke-linecap:round;stroke-linejoin:round;stroke-dasharray:80,120,160,240,120,180;}
	
		.st13{fill:none;stroke:#FFFFFF;stroke-width:2;stroke-linecap:round;stroke-linejoin:round;stroke-dasharray:80,120,160,240,120,180;}
	.st14{fill:none;stroke:#FFFFFF;stroke-width:2;stroke-linecap:round;stroke-linejoin:round;}
	.st15{fill:#9FFFE0;stroke:#00251A;stroke-miterlimit:10;}
	
		.st16{fill:none;stroke:#00251A;stroke-width:2;stroke-linecap:round;stroke-miterlimit:10;stroke-dasharray:80,120,160,240,120,180;}
	.st17{clip-path:url(#SVGID_6_);fill:#69F0AE;}
	.st18{clip-path:url(#SVGID_6_);fill:#00251A;}
	.st19{clip-path:url(#SVGID_6_);fill:none;}
	.st20{clip-path:url(#SVGID_6_);fill:#FFFFFF;stroke:#00251A;stroke-width:4;stroke-miterlimit:10;}
	.st21{fill:none;}
	.st22{fill:none;stroke:#00251A;stroke-width:20;stroke-miterlimit:10;}
</style>
<g>
	<defs>
		<rect id="SVGID_1_" width="1920" height="1080"/>
	</defs>
	<clipPath id="SVGID_2_">
		<use xlink:href="#SVGID_1_"  style="overflow:visible;"/>
	</clipPath>
	<g class="st0">
		<rect x="0" y="0" class="st1" width="1920.1" height="1080.1"/>
		<g id="c">
			<rect x="-0.1" y="0" class="st2" width="1920.2" height="1080.2"/>
			<path class="st3" d="M428.8,183.7l2.1,3.8l3.8,2.1l-3.8,2.1l-2.1,3.8l-2.1-3.8l-3.8-2.1l3.8-2.1L428.8,183.7z"/>
			<path class="st3" d="M1433.7,378.8l2.1,3.8l3.8,2.1l-3.8,2.1l-2.1,3.8l-2.1-3.8l-3.8-2.1l3.8-2.1L1433.7,378.8z"/>
			<path class="st3" d="M1620.4,114.9l2.1,3.8l3.8,2.1l-3.8,2.1l-2.1,3.8l-2.1-3.8l-3.8-2.1l3.8-2.1L1620.4,114.9z"/>
			<path class="st3" d="M1809.6,236.5l2.1,3.8l3.8,2.1l-3.8,2.1l-2.1,3.8l-2.1-3.8l-3.8-2.1l3.8-2.1L1809.6,236.5z"/>
			<path class="st3" d="M1693.8,201l3.1,5.6l5.6,3.1l-5.6,3.1l-3.1,5.6l-3.1-5.6l-5.6-3.1l5.6-3.1L1693.8,201z"/>
			<path class="st3" d="M320.4,276.1l2.1,3.8l3.8,2.1l-3.8,2.1l-2.1,3.8l-2.1-3.8l-3.8-2.1l3.8-2.1L320.4,276.1z"/>
			<path class="st3" d="M453.6,354.5l3,5.5l5.5,3l-5.5,3l-3,5.5l-3-5.5l-5.5-3l5.5-3L453.6,354.5z"/>
			<path class="st3" d="M248.3,120.3l2.1,3.8l3.8,2.1l-3.8,2.1l-2.1,3.8l-2.1-3.8l-3.8-2.1l3.8-2.1L248.3,120.3z"/>
			<g transform="translate(0 -0.142)">
				<defs>
					<rect id="SVGID_3_" x="-0.1" y="0" width="1920.2" height="1080.2"/>
				</defs>
				<defs>
					<rect id="SVGID_4_" x="-0.1" y="0" width="1920.2" height="1080.2"/>
				</defs>
				<clipPath id="SVGID_5_">
					<use xlink:href="#SVGID_3_"  style="overflow:visible;"/>
				</clipPath>
				<clipPath id="SVGID_6_" class="st4">
					<use xlink:href="#SVGID_4_"  style="overflow:visible;"/>
				</clipPath>
				<g class="st5">
					<g transform="translate(947.976 -4.193)">
						<rect x="0" y="0" class="st6" width="24.1" height="434.4"/>
						<rect x="-1" y="-1" class="st7" width="26.1" height="436.4"/>
					</g>
					<g>
						<path class="st8" d="M1329.1,191.5h-1.3H960H594.4h-1.3l0.3-1.2l50-194.7l0.2-0.8l0.8,0l317.7,7.1l315.5-7.1l0.8,0l0.2,0.8
							l50,194.7L1329.1,191.5z"/>
						<path class="st3" d="M644.5-4.2l-50,194.7H960h367.8l-50-194.7L962.2,2.9L644.5-4.2 M1277.8-6.2c0.9,0,1.7,0.6,1.9,1.5
							l50,194.7c0.2,0.6,0,1.2-0.4,1.7c-0.4,0.5-1,0.8-1.6,0.8H960H594.4c-0.6,0-1.2-0.3-1.6-0.8c-0.4-0.5-0.5-1.1-0.4-1.7l50-194.7
							c0.2-0.9,1-1.5,1.9-1.5c0,0,0,0,0,0l317.7,7.1L1277.8-6.2C1277.7-6.2,1277.8-6.2,1277.8-6.2z"/>
					</g>
					<line class="st7" x1="786.2" y1="540.1" x2="648.9" y2="319.4"/>
					<line class="st7" x1="543.1" y1="183.3" x2="786.2" y2="540.1"/>
					<line class="st7" x1="1133.8" y1="540.1" x2="1271.1" y2="319.4"/>
					<line class="st7" x1="1376.9" y1="183.3" x2="1133.8" y2="540.1"/>
					<line class="st7" x1="810.4" y1="472.8" x2="960" y2="2.9"/>
					<line class="st7" x1="795.6" y1="481.7" x2="960" y2="2.9"/>
					<line class="st7" x1="1109.6" y1="472.8" x2="960" y2="2.9"/>
					<line class="st7" x1="1124.4" y1="481.7" x2="960" y2="2.9"/>
					<g transform="matrix(0.985, 0.174, -0.174, 0.985, 754.232, 502.509)">
						
							<rect x="16.3" y="-16.2" transform="matrix(-2.310380e-05 1 -1 -2.310380e-05 35.6059 -16.2334)" class="st6" width="19.2" height="51.8"/>
						
							<rect x="15.3" y="-17.2" transform="matrix(-2.310380e-05 1 -1 -2.310380e-05 35.6059 -16.2334)" class="st7" width="21.2" height="53.8"/>
					</g>
					<g transform="matrix(-0.985, 0.174, -0.174, -0.985, 1169.092, 521.364)">
						<rect x="0" y="-0.1" class="st6" width="51.8" height="19.2"/>
						<rect x="-1" y="-1.1" class="st7" width="53.8" height="21.2"/>
					</g>
					<path class="st9" d="M1123,477.6v-33L960,372v52.8"/>
					<line class="st7" x1="1123" y1="444.6" x2="1123" y2="478.9"/>
					<line class="st7" x1="1115.6" y1="441.3" x2="1115.6" y2="476.5"/>
					<line class="st7" x1="1108.2" y1="438" x2="1108.2" y2="474"/>
					<line class="st7" x1="1100.8" y1="434.7" x2="1100.8" y2="471.5"/>
					<line class="st7" x1="1093.4" y1="431.4" x2="1093.4" y2="469.1"/>
					<line class="st7" x1="1085.9" y1="428.1" x2="1085.9" y2="466.6"/>
					<line class="st7" x1="1078.5" y1="424.8" x2="1078.5" y2="464.2"/>
					<line class="st7" x1="1071.1" y1="421.5" x2="1071.1" y2="461.7"/>
					<line class="st7" x1="1063.7" y1="418.2" x2="1063.7" y2="459.2"/>
					<line class="st7" x1="1056.3" y1="414.9" x2="1056.3" y2="456.8"/>
					<line class="st7" x1="1048.9" y1="411.6" x2="1048.9" y2="454.3"/>
					<line class="st7" x1="1041.5" y1="408.3" x2="1041.5" y2="451.9"/>
					<line class="st7" x1="1034.1" y1="405" x2="1034.1" y2="449.4"/>
					<line class="st7" x1="1026.7" y1="401.7" x2="1026.7" y2="447"/>
					<line class="st7" x1="1019.3" y1="398.4" x2="1019.3" y2="444.5"/>
					<line class="st7" x1="1011.9" y1="395.1" x2="1011.9" y2="442"/>
					<line class="st7" x1="1004.5" y1="391.8" x2="1004.5" y2="439.6"/>
					<line class="st7" x1="997" y1="388.5" x2="997" y2="437.1"/>
					<line class="st7" x1="989.6" y1="385.2" x2="989.6" y2="434.7"/>
					<line class="st7" x1="982.2" y1="381.9" x2="982.2" y2="432.2"/>
					<line class="st7" x1="974.8" y1="378.6" x2="974.8" y2="429.7"/>
					<line class="st7" x1="967.4" y1="375.3" x2="967.4" y2="427.3"/>
					<line class="st7" x1="960" y1="372" x2="960" y2="424.8"/>
					<path class="st9" d="M797,477.6v-33L960,372v52.8"/>
					<line class="st7" x1="797" y1="444.6" x2="797" y2="480.9"/>
					<line class="st7" x1="804.4" y1="441.3" x2="804.4" y2="478.3"/>
					<line class="st7" x1="811.9" y1="438" x2="811.9" y2="475.8"/>
					<line class="st7" x1="819.3" y1="434.7" x2="819.3" y2="473.2"/>
					<line class="st7" x1="826.7" y1="431.4" x2="826.7" y2="470.7"/>
					<line class="st7" x1="834.1" y1="428.1" x2="834.1" y2="468.1"/>
					<line class="st7" x1="841.5" y1="424.8" x2="841.5" y2="465.6"/>
					<line class="st7" x1="848.9" y1="421.5" x2="848.9" y2="463"/>
					<line class="st7" x1="856.3" y1="418.2" x2="856.3" y2="460.5"/>
					<line class="st7" x1="863.7" y1="414.9" x2="863.7" y2="457.9"/>
					<line class="st7" x1="871.1" y1="411.6" x2="871.1" y2="455.4"/>
					<line class="st7" x1="878.5" y1="408.3" x2="878.5" y2="452.8"/>
					<line class="st7" x1="885.9" y1="405" x2="885.9" y2="450.3"/>
					<line class="st7" x1="893.3" y1="401.7" x2="893.3" y2="447.7"/>
					<line class="st7" x1="900.7" y1="398.4" x2="900.7" y2="445.2"/>
					<line class="st7" x1="908.2" y1="395.1" x2="908.2" y2="442.7"/>
					<line class="st7" x1="915.6" y1="391.8" x2="915.6" y2="440.1"/>
					<line class="st7" x1="923" y1="388.5" x2="923" y2="437.6"/>
					<line class="st7" x1="930.4" y1="385.2" x2="930.4" y2="435"/>
					<line class="st7" x1="937.8" y1="381.9" x2="937.8" y2="432.5"/>
					<line class="st7" x1="945.2" y1="378.6" x2="945.2" y2="429.9"/>
					<line class="st7" x1="952.6" y1="375.3" x2="952.6" y2="427.4"/>
					<line class="st7" x1="960" y1="372" x2="960" y2="424.8"/>
					<g>
						<path class="st6" d="M1204.9,293.5c-9.9,0-19.6-2.6-28-7.4c-4.4-2.5-8.4-5.6-11.9-9.3c-3.5-3.6-6.6-7.7-9.1-12.3
							c-2.5,4.5-5.5,8.6-9.1,12.3c-3.5,3.6-7.5,6.7-11.9,9.3c-8.4,4.8-18.1,7.4-28,7.4s-19.6-2.6-28-7.4c-4.4-2.5-8.4-5.6-11.9-9.3
							c-3.5-3.6-6.6-7.7-9.1-12.3c-2.5,4.5-5.5,8.6-9.1,12.3c-3.5,3.6-7.5,6.7-11.9,9.3c-8.4,4.8-18.1,7.4-28,7.4
							c-9.9,0-19.6-2.6-28-7.4c-4.4-2.5-8.4-5.6-11.9-9.3c-3.5-3.6-6.6-7.7-9.1-12.3c-2.5,4.5-5.5,8.6-9.1,12.3
							c-3.5,3.6-7.5,6.7-11.9,9.3c-8.4,4.8-18.1,7.4-28,7.4s-19.6-2.6-28-7.4c-4.4-2.5-8.4-5.6-11.9-9.3c-3.5-3.6-6.6-7.7-9.1-12.3
							c-2.5,4.5-5.5,8.6-9.1,12.3c-3.5,3.6-7.5,6.7-11.9,9.3c-8.4,4.8-18.1,7.4-28,7.4c-9.9,0-19.6-2.6-28-7.4
							c-4.4-2.5-8.4-5.6-11.9-9.3c-3.5-3.6-6.5-7.7-9-12.2c-2.4,4.3-5.2,8.2-8.5,11.7c-3.5,3.7-7.6,7-12,9.6
							c-8.6,5-18.4,7.7-28.5,7.7c-9.7,0-19.2-2.5-27.6-7.2c-4.3-2.4-8.3-5.5-11.8-9c-3.7-3.7-6.9-7.9-9.5-12.6l-1-1.8l-0.8-1.5h1.7
							h588h1.7l-0.8,1.5l-0.5,0.9c-2.6,4.8-5.7,9.2-9.4,12.9c-3.5,3.6-7.5,6.7-11.9,9.3C1224.5,290.9,1214.8,293.5,1204.9,293.5z"/>
						<path class="st3" d="M665.9,262.4l1,1.8c10.5,18.8,29.3,28.2,48,28.2c19.4,0,38.8-10.1,49-30l0.5,0.9
							c10.4,19.4,29.4,29.1,48.5,29.1c19.1,0,38.1-9.7,48.5-29.1l0.5-0.9l0.5,0.9c10.4,19.4,29.4,29.1,48.5,29.1
							c19.1,0,38.1-9.7,48.5-29.1l0.5-0.9l0.5,0.9c10.4,19.4,29.4,29.1,48.5,29.1c19.1,0,38.1-9.7,48.5-29.1l0.5-0.9l0.5,0.9
							c10.4,19.4,29.4,29.1,48.5,29.1s38.1-9.7,48.5-29.1l0.5-0.9l0.5,0.9c10.4,19.4,29.4,29.1,48.5,29.1s38.1-9.7,48.5-29.1
							l0.5-0.9H665.9 M665.9,260.4h98h98h98h98h98h98c0.7,0,1.4,0.4,1.7,1c0.4,0.6,0.4,1.4,0,2l-0.5,0.9c-2.6,4.9-5.8,9.3-9.6,13.2
							c-3.6,3.7-7.7,6.9-12.2,9.4c-8.6,4.9-18.5,7.5-28.5,7.5c-10.1,0-19.9-2.6-28.5-7.5c-4.5-2.6-8.6-5.7-12.2-9.4
							c-3.2-3.3-6-6.9-8.3-10.9c-2.4,4-5.2,7.7-8.3,10.9c-3.6,3.7-7.7,6.9-12.2,9.4c-8.6,4.9-18.5,7.5-28.5,7.5
							c-10.1,0-19.9-2.6-28.5-7.5c-4.5-2.6-8.6-5.7-12.2-9.4c-3.2-3.3-6-6.9-8.3-10.9c-2.4,4-5.2,7.7-8.3,10.9
							c-3.6,3.7-7.7,6.9-12.2,9.4c-8.6,4.9-18.5,7.5-28.5,7.5c-10.1,0-19.9-2.6-28.5-7.5c-4.5-2.6-8.6-5.7-12.2-9.4
							c-3.2-3.3-6-6.9-8.3-10.9c-2.4,4-5.2,7.7-8.3,10.9c-3.6,3.7-7.7,6.9-12.2,9.4c-8.6,4.9-18.5,7.5-28.5,7.5
							c-10.1,0-19.9-2.6-28.5-7.5c-4.5-2.6-8.6-5.7-12.2-9.4c-3.2-3.3-6-6.9-8.3-10.9c-2.4,4-5.2,7.7-8.3,10.9
							c-3.6,3.7-7.7,6.9-12.2,9.4c-8.6,4.9-18.5,7.5-28.5,7.5c-10.1,0-19.9-2.6-28.5-7.5c-4.5-2.6-8.6-5.7-12.2-9.4
							c-3.2-3.3-6-6.9-8.3-10.9c-2.2,3.8-4.8,7.2-7.8,10.3c-3.6,3.8-7.7,7.1-12.3,9.7c-8.7,5.1-18.7,7.8-29,7.8
							c-9.9,0-19.6-2.5-28.1-7.3c-4.4-2.5-8.5-5.6-12-9.1c-3.7-3.7-7-8-9.6-12.8l-1-1.8c-0.3-0.6-0.3-1.4,0-2
							C664.5,260.8,665.2,260.4,665.9,260.4z"/>
					</g>
					<g>
						<path class="st8" d="M1212.7,358.5c-10.2,0-20.2-2.6-28.9-7.6c-4.5-2.6-8.7-5.8-12.3-9.5c-3.6-3.7-6.8-8-9.4-12.7
							c-2.6,4.7-5.7,9-9.4,12.7c-3.6,3.7-7.8,6.9-12.3,9.5c-8.7,5-18.7,7.6-28.9,7.6s-20.2-2.6-28.9-7.6c-4.5-2.6-8.7-5.8-12.3-9.5
							c-3.6-3.7-6.8-8-9.4-12.7c-2.6,4.7-5.7,9-9.4,12.7c-3.6,3.7-7.8,6.9-12.3,9.5c-8.7,5-18.7,7.6-28.9,7.6s-20.2-2.6-28.9-7.6
							c-4.5-2.6-8.7-5.8-12.3-9.5c-3.6-3.7-6.8-8-9.4-12.7c-2.6,4.7-5.7,9-9.4,12.7c-3.6,3.7-7.8,6.9-12.3,9.5
							c-8.7,5-18.7,7.6-28.9,7.6c-10.2,0-20.2-2.6-28.9-7.6c-4.5-2.6-8.7-5.8-12.3-9.5c-3.6-3.7-6.8-8-9.4-12.7
							c-2.6,4.7-5.7,9-9.4,12.7c-3.6,3.7-7.8,6.9-12.3,9.5c-8.7,5-18.7,7.6-28.9,7.6c-10.2,0-20.2-2.6-28.9-7.6
							c-4.5-2.6-8.7-5.8-12.3-9.5c-3.6-3.7-6.8-8-9.4-12.7c-2.4,4.4-5.4,8.5-8.8,12.1c-3.7,3.9-7.8,7.2-12.4,9.8
							c-8.8,5.2-19,7.9-29.4,7.9c-10,0-19.8-2.6-28.4-7.4c-4.5-2.5-8.6-5.6-12.2-9.2c-3.8-3.8-7.1-8.1-9.8-13l-1-1.9l-0.8-1.5h1.7
							h606.5h1.7l-0.8,1.5l-0.5,1c-2.6,5-5.9,9.4-9.7,13.3c-3.6,3.7-7.8,6.9-12.3,9.5C1232.9,355.8,1222.9,358.5,1212.7,358.5z"/>
						<path class="st3" d="M656.7,326.5l1,1.9c10.9,19.4,30.2,29.1,49.5,29.1c20,0,40.1-10.4,50.5-30.9l0.5,1c10.7,20,30.4,30,50,30
							c19.7,0,39.3-10,50-30l0.5-1l0.5,1c10.7,20,30.4,30,50,30c19.7,0,39.3-10,50-30l0.5-1l0.5,1c10.7,20,30.4,30,50,30
							c19.7,0,39.3-10,50-30l0.5-1l0.5,1c10.7,20,30.4,30,50,30c19.7,0,39.3-10,50-30l0.5-1l0.5,1c10.7,20,30.4,30,50,30
							s39.3-10,50-30l0.5-1H656.7 M656.7,324.5h101.1h101.1H960h101.1h101.1h101.1c0.7,0,1.4,0.4,1.7,1s0.4,1.4,0,2l-0.5,1
							c-2.7,5-6,9.6-9.9,13.6c-3.7,3.8-7.9,7.1-12.5,9.7c-8.9,5.1-19,7.8-29.4,7.8s-20.5-2.7-29.4-7.8c-4.6-2.6-8.8-5.9-12.5-9.7
							c-3.3-3.4-6.2-7.2-8.6-11.4c-2.4,4.2-5.3,8-8.6,11.4c-3.7,3.8-7.9,7.1-12.5,9.7c-8.9,5.1-19,7.8-29.4,7.8
							c-10.4,0-20.5-2.7-29.4-7.8c-4.6-2.6-8.8-5.9-12.5-9.7c-3.3-3.4-6.2-7.2-8.6-11.4c-2.4,4.2-5.3,8-8.6,11.4
							c-3.7,3.8-7.9,7.1-12.5,9.7c-8.9,5.1-19,7.8-29.4,7.8c-10.4,0-20.5-2.7-29.4-7.8c-4.6-2.6-8.8-5.9-12.5-9.7
							c-3.3-3.4-6.2-7.2-8.6-11.4c-2.4,4.2-5.3,8-8.6,11.4c-3.7,3.8-7.9,7.1-12.5,9.7c-8.9,5.1-19,7.8-29.4,7.8
							c-10.4,0-20.5-2.7-29.4-7.8c-4.6-2.6-8.8-5.9-12.5-9.7c-3.3-3.4-6.2-7.2-8.6-11.4c-2.4,4.2-5.3,8-8.6,11.4
							c-3.7,3.8-7.9,7.1-12.5,9.7c-8.9,5.1-19,7.8-29.4,7.8c-10.4,0-20.5-2.7-29.4-7.8c-4.6-2.6-8.8-5.9-12.5-9.7
							c-3.3-3.4-6.2-7.2-8.6-11.3c-2.3,3.9-5,7.5-8.1,10.7c-3.7,3.9-8,7.3-12.6,10c-9,5.3-19.3,8-29.9,8c-10.2,0-20.2-2.6-28.9-7.5
							c-4.5-2.6-8.7-5.7-12.4-9.4c-3.9-3.9-7.2-8.3-9.9-13.2l-1-1.9c-0.3-0.6-0.3-1.4,0-2C655.4,324.9,656,324.5,656.7,324.5z"/>
					</g>
					<g transform="translate(648.888 248.535)">
						<rect x="0" y="0.1" class="st10" width="614.4" height="13.8"/>
						<rect x="-1" y="-0.9" class="st7" width="616.4" height="15.8"/>
					</g>
					<g transform="translate(648.888 312.164)">
						<rect x="0" y="0.1" class="st10" width="622.3" height="14.3"/>
						<rect x="-1" y="-0.9" class="st7" width="624.3" height="16.3"/>
					</g>
					<g>
						<path class="st10" d="M1146.1,699.2h-1.1H960H775h-1.1l0.1-1.1l15.5-218.2l0-0.6l0.6-0.2l132.1-47.9L951.8,265l0.1-0.8h0.8
							h7.2h7.2h0.8l0.1,0.8l29.6,166.1l132.1,47.9l0.6,0.2l0,0.6l15.5,218.2L1146.1,699.2z"/>
						<path class="st3" d="M952.8,265.2l-29.7,166.7L790.5,480L775,698.2h185h185L1129.5,480l-132.7-48.1l-29.7-166.7H960H952.8
							 M952.8,263.2h7.2h7.2c1,0,1.8,0.7,2,1.6l29.5,165.5l131.6,47.7c0.7,0.3,1.3,1,1.3,1.7l15.5,218.2c0,0.6-0.2,1.1-0.5,1.5
							c-0.4,0.4-0.9,0.6-1.5,0.6H960H775c-0.6,0-1.1-0.2-1.5-0.6c-0.4-0.4-0.6-1-0.5-1.5l15.5-218.2c0.1-0.8,0.6-1.5,1.3-1.7
							l131.6-47.7l29.5-165.5C951,263.9,951.9,263.2,952.8,263.2z"/>
					</g>
					<g>
						<path class="st11" d="M1289.5,230.9c-13.2,0-26.2-3.4-37.5-9.9c-5.9-3.4-11.2-7.5-16-12.4c-4.8-5-9-10.7-12.4-17
							c-3.4,6.3-7.6,12-12.4,17c-4.7,4.9-10.1,9-16,12.4c-11.3,6.5-24.3,9.9-37.5,9.9s-26.2-3.4-37.5-9.9c-5.9-3.4-11.2-7.5-16-12.4
							c-4.8-5-9-10.7-12.4-17c-3.4,6.3-7.6,12-12.4,17c-4.7,4.9-10.1,9-16,12.4c-11.3,6.5-24.3,9.9-37.5,9.9
							c-13.2,0-26.2-3.4-37.5-9.9c-5.9-3.4-11.2-7.5-16-12.4c-4.8-5-9-10.7-12.4-17c-3.4,6.3-7.6,12-12.4,17
							c-4.7,4.9-10.1,9-16,12.4c-11.3,6.5-24.3,9.9-37.5,9.9c-13.2,0-26.2-3.4-37.5-9.9c-5.9-3.4-11.2-7.5-16-12.4
							c-4.8-5-9-10.7-12.4-17c-3.4,6.3-7.6,12-12.4,17c-4.7,4.9-10.1,9-16,12.4c-11.3,6.5-24.3,9.9-37.5,9.9s-26.2-3.4-37.5-9.9
							c-5.9-3.4-11.2-7.5-16-12.4c-4.8-5-9-10.7-12.4-16.9c-3.2,6-7.1,11.4-11.7,16.2c-4.7,5-10.2,9.3-16.1,12.8
							c-11.5,6.7-24.6,10.3-38.1,10.3c-13,0-25.8-3.3-36.9-9.6c-5.8-3.3-11.1-7.3-15.8-12c-4.9-4.9-9.2-10.6-12.7-16.8l-1.4-2.4
							l-0.8-1.5h1.7h790.9h1.7l-0.8,1.5l-0.7,1.3c-3.4,6.4-7.7,12.3-12.6,17.3c-4.7,4.9-10.1,9-16,12.4
							C1315.7,227.5,1302.8,230.9,1289.5,230.9z"/>
						<path class="st3" d="M564.6,189.5l1.4,2.4c14.1,25.3,39.4,37.9,64.5,37.9c26.1,0,52.2-13.5,65.9-40.3l0.7,1.3
							c13.9,26.1,39.6,39.1,65.2,39.1c25.6,0,51.3-13,65.2-39.1l0.7-1.3l0.7,1.3c13.9,26.1,39.6,39.1,65.2,39.1
							c25.6,0,51.3-13,65.2-39.1l0.7-1.3l0.7,1.3c13.9,26.1,39.6,39.1,65.2,39.1c25.6,0,51.3-13,65.2-39.1l0.7-1.3l0.7,1.3
							c13.9,26.1,39.6,39.1,65.2,39.1s51.3-13,65.2-39.1l0.7-1.3l0.7,1.3c13.9,26.1,39.6,39.1,65.2,39.1s51.3-13,65.2-39.1l0.7-1.3
							H564.6 M564.6,187.5h131.8h131.8H960h131.8h131.8h131.8c0.7,0,1.4,0.4,1.7,1c0.4,0.6,0.4,1.4,0,2l-0.7,1.3
							c-3.5,6.5-7.8,12.4-12.8,17.6c-4.8,4.9-10.2,9.1-16.2,12.6c-11.4,6.6-24.6,10-38,10s-26.6-3.5-38-10
							c-6-3.4-11.4-7.6-16.2-12.6c-4.5-4.6-8.4-9.9-11.7-15.6c-3.3,5.7-7.2,11-11.7,15.6c-4.8,4.9-10.2,9.1-16.2,12.6
							c-11.4,6.6-24.6,10-38,10s-26.6-3.5-38-10c-6-3.4-11.4-7.6-16.2-12.6c-4.5-4.6-8.4-9.9-11.7-15.6c-3.3,5.7-7.2,11-11.7,15.6
							c-4.8,4.9-10.2,9.1-16.2,12.6c-11.4,6.6-24.6,10-38,10c-13.4,0-26.6-3.5-38-10c-6-3.4-11.4-7.6-16.2-12.6
							c-4.5-4.6-8.4-9.9-11.7-15.6c-3.3,5.7-7.2,11-11.7,15.6c-4.8,4.9-10.2,9.1-16.2,12.6c-11.4,6.6-24.6,10-38,10
							c-13.4,0-26.6-3.5-38-10c-6-3.4-11.4-7.6-16.2-12.6c-4.5-4.6-8.4-9.9-11.7-15.6c-3.3,5.7-7.2,11-11.7,15.6
							c-4.8,4.9-10.2,9.1-16.2,12.6c-11.4,6.6-24.6,10-38,10c-13.4,0-26.6-3.5-38-10c-6-3.4-11.4-7.6-16.2-12.6
							c-4.5-4.6-8.4-9.8-11.7-15.6c-3.1,5.4-6.8,10.4-11,14.8c-4.8,5.1-10.3,9.4-16.3,13c-11.6,6.8-25,10.4-38.6,10.4
							c-13.2,0-26.1-3.4-37.4-9.7c-5.9-3.3-11.3-7.4-16.1-12.2c-5-5-9.3-10.7-12.8-17.1l-1.4-2.4c-0.3-0.6-0.3-1.4,0-2
							C563.2,187.9,563.9,187.5,564.6,187.5z"/>
					</g>
					<g>
						<path class="st10" d="M1356.8,163.3l-1.4-0.1L960,122.1l-395.3,41.1l-1.4,0.1l0.3-1.4L602.3,2.7l0.2-0.8h0.8H960h356.8h0.8
							l0.2,0.8l38.7,159.2L1356.8,163.3z"/>
						<path class="st3" d="M603.2,2.9l-38.7,159.2L960,121.1l395.4,41.1L1316.8,2.9H960H603.2 M603.2,0.9H960h356.8
							c0.9,0,1.7,0.6,1.9,1.5l38.7,159.2c0.2,0.6,0,1.3-0.4,1.8c-0.4,0.4-0.9,0.7-1.5,0.7c-0.1,0-0.1,0-0.2,0L960,123.1l-395.2,41.1
							c-0.1,0-0.1,0-0.2,0c-0.6,0-1.1-0.2-1.5-0.7c-0.4-0.5-0.6-1.2-0.4-1.8L601.3,2.5C601.5,1.6,602.3,0.9,603.2,0.9z"/>
					</g>
					<g transform="translate(539.965 176.168)">
						<rect x="0" y="0" class="st10" width="840.1" height="14.3"/>
						<rect x="-1" y="-1" class="st7" width="842.1" height="16.3"/>
					</g>
					<g transform="translate(561.772 -4.193)">
						<rect x="0" y="0" class="st10" width="788.7" height="14.3"/>
						<rect x="-1" y="-1" class="st7" width="790.7" height="16.3"/>
					</g>
					<g>
						<path class="st6" d="M1146.1,699.2h-1.1H775h-1.1l0.1-1.1l6.9-96.7l0-0.7l0.6-0.2l178.1-61.3l0.3-0.1l0.3,0.1l178.1,61.3
							l0.6,0.2l0,0.7l6.9,96.7L1146.1,699.2z"/>
						<path class="st3" d="M960,540.1l-178.1,61.3l-6.9,96.7h370l-6.9-96.7L960,540.1 M960,538.1c0.2,0,0.4,0,0.7,0.1l178.1,61.3
							c0.8,0.3,1.3,1,1.3,1.8l6.9,96.7c0,0.6-0.2,1.1-0.5,1.5c-0.4,0.4-0.9,0.6-1.5,0.6H775c-0.6,0-1.1-0.2-1.5-0.6
							c-0.4-0.4-0.6-1-0.5-1.5l6.9-96.7c0.1-0.8,0.6-1.5,1.3-1.8l178.1-61.3C959.6,538.2,959.8,538.1,960,538.1z"/>
					</g>
					<path class="st12" d="M1369.1,688.6c1.6-7.1,6.7-24.6,14.1-38.5c11.2,6.8,23.9,10.7,36.9,11.6c1.4,0.1,2.9,0.2,4.4,0.2
						c20.6,0,41.4-9.9,55.5-26.4c12.9-15.1,26.7-43.1,19.2-91.3c-8.3-52.9-31.3-60.8-44.3-60.8c-7.4,0.1-14.5,2.5-20.4,7
						c-1.5-10.5-1.3-22.7,3.3-34.6c8.3-21.5,29.3-38.1,62.2-49.3c11.5-4,23.5-6.1,35.7-6.2c80.4,0,126.2,100.9,126.7,101.9l5.2,11.7
						l12.1-4.1c1.8-0.6,18.3-6.6,31.6-24.2c12-15.9,23.5-44.5,10.3-90.9c-17.3-60.6-60.7-69.6-85.1-69.6h-0.3
						c4.2-7.7,9.2-15,15-21.6c23.6-27.2,56.5-41,97.9-41c2.7,0,5.5,0.1,8.3,0.2c42.5,1.9,80.6,17.8,113.3,47.4
						c13.7,12.4,25.6,26.6,35.4,42.2"/>
					<g>
						<path class="st10" d="M1921.1,1081.2h-1h-960h-0.2h-960h-1v-1V348.4v-0.2l0.1-0.2c0-0.1,3.3-6.1,9.7-15
							c3.8-5.2,7.9-10.4,12.3-15.5c5.5-6.3,11.3-12.3,17.4-17.9c15.5-14.2,32.6-25.7,50.7-34.3c10.8-5.1,22.1-9.1,33.6-12
							c12.6-3.2,25.8-5.1,39.2-5.7c3-0.1,6-0.2,9-0.2c13.3,0,26.1,1.4,37.9,4c10.8,2.4,21.1,6,30.5,10.7c16,7.8,29.9,18.7,41.6,32.4
							c4.6,5.4,8.8,11.2,12.5,17.3c3,4.9,5.7,10,8,15.1c4,8.8,5.5,14.5,5.6,14.8l0.4,1.7l-1.7-0.5c0,0-2.4-0.7-6.3-1.5
							c-3.6-0.7-9.4-1.5-16.1-1.5c-6.5,0-12.8,0.7-18.7,2.2c-7.2,1.8-13.9,4.6-19.9,8.5c-15,9.7-25.8,25.9-32.1,48
							c-2.7,9.3-4.3,18.3-5,26.7c-0.6,7.6-0.4,14.8,0.7,21.5c1.8,11.2,5.8,21.2,12.1,29.5c2.5,3.3,5.3,6.3,8.4,9.1
							c2.5,2.2,5.1,4.2,7.9,5.9c3.3,2.1,6.1,3.3,7.4,3.8c1-2.2,3.9-8.3,8.7-16.4c3.5-6,7.3-12,11.2-17.7c4.9-7.2,10.2-14,15.6-20.3
							c13.7-16.1,28.5-28.9,43.9-38.1c9.2-5.5,18.7-9.7,28.3-12.6c10.5-3.2,21.4-4.8,32.3-4.8c6.5,0,13.1,0.6,19.7,1.7
							c6.9,1.2,13.9,3,20.9,5.3c10.3,3.5,19.7,7.6,28,12.2c7.8,4.3,14.7,9.1,20.6,14.2c5.5,4.8,10.3,10.1,14.2,15.6
							c3.6,5.1,6.5,10.6,8.7,16.3c3.3,8.7,5,18.1,5.1,28c0,7.9-1,16.1-3,24.3c-1.8,7.3-4.1,13.4-5.7,17.2c-1.8,4.1-3.1,6.5-3.1,6.6
							l-1.9-0.7c0.5-3,0.2-6.4-1-9.8c-1.1-3.3-2.9-6.5-5.3-9.2c-2.2-2.6-4.8-4.7-7.5-6.2c-2.9-1.6-5.9-2.4-8.9-2.4
							c-2.9,0-5.8,0.8-8.4,2.3c-3,1.7-5.8,4.4-8.3,7.9c-5.9,8.2-10.2,21-12.8,37.9c-2.8,18-2.6,34.3,0.6,48.2
							c2.8,12.2,7.9,22.6,15.1,31c3.1,3.6,6.6,6.9,10.4,9.7c3.5,2.6,7.4,4.8,11.4,6.6c3.7,1.6,7.6,2.9,11.5,3.7
							c3.7,0.8,7.3,1.2,10.8,1.2c1.1,0,2.2,0,3.3-0.1c6.2-0.5,12.2-1.7,17.8-3.6c4.5-1.6,8.7-3.6,12.6-6c6.6-4.1,10-8,10-8.1
							l0.8-0.9l0.8,0.9c3.8,4.4,7.4,10.1,10.9,17c2.7,5.5,5.3,11.6,7.7,18.4c2.3,6.6,4,12.4,5.1,16.2c0.7-3.2,1.9-7.9,3.9-13.3
							c2.3-6,5.1-11.8,8.5-17.1c4.2-6.7,9.1-12.7,14.8-17.9c7.3-6.8,16.7-11.7,28-14.6c4.4-1.2,9.1-2,14-2.5
							c3.9-0.4,7.9-0.6,11.9-0.6c6.8,0,11.2,0.6,11.4,0.6l1.8,0.2l-1.1,1.4c-8.8,10.5-14.3,20.7-16.5,30.3
							c-1.9,8.5-1.2,16.5,2.2,23.8c2.3,4.9,5.8,9.4,10.4,13.5c4.3,3.8,9.5,7.1,15.4,9.9c5.7,2.6,11.8,4.7,18.3,6.1
							c6.3,1.4,12.7,2.1,19,2.1c5.7,0,11.1-0.6,15.9-1.7c5-1.2,9.3-2.9,12.9-5.2c4.4-2.8,7.5-5.4,9.3-7.6c1.5-1.8,2-3.4,1.6-4.7
							c-0.4-1.3-1.7-2.4-3.8-3.3c-2-0.9-4.7-1.6-8.1-2.1c-6.2-1-13.1-1.1-16.6-1.1c-1.7,0-2.7,0-2.7,0l-1.8,0.1l0.8-1.5
							c0-0.1,1-1.7,3.1-4.2c2-2.3,5.4-5.7,10.5-9.3c5.8-3.9,12.4-7.2,19.9-9.6c9.3-3,19.8-4.8,31.3-5.2c2.5-0.1,5.1-0.1,7.6-0.1
							c10.5,0,21.3,0.9,31.9,2.5c8.5,1.3,17,3.2,25.2,5.6c8.7,2.5,15.3,5,19.1,6.6c-0.8-1-1.8-2.1-3.1-3.3c-2.1-2-4.4-3.9-6.9-5.5
							c-3.1-2-6.5-3.7-10-5l0.4-1.9c11.5,0.8,24.9,3.1,39.7,6.7c11.8,2.9,24.6,6.6,38,11.1c20.8,7,36.7,13.7,39.4,14.9
							c2.7-1.1,18.6-7.9,39.4-14.9c13.4-4.5,26.2-8.2,38-11.1c14.8-3.6,28.2-5.9,39.7-6.7l0.4,1.9c-3.5,1.3-6.9,3-10,5.1
							c-2.5,1.6-4.8,3.5-6.9,5.5c-1.2,1.2-2.3,2.3-3,3.3c3.7-1.6,10.3-4.1,19.1-6.6c8.2-2.4,16.7-4.2,25.2-5.6
							c10.6-1.7,21.4-2.5,31.9-2.5c2.5,0,5.1,0,7.6,0.1c11.4,0.4,22,2.2,31.3,5.2c7.5,2.4,14.2,5.6,19.9,9.6c5.1,3.5,8.6,7,10.5,9.3
							c2.2,2.5,3.1,4.2,3.1,4.2l0.8,1.5l-1.8-0.1c0,0-1,0-2.7,0c-3.6,0-10.4,0.1-16.6,1.1c-3.3,0.5-6.1,1.3-8.1,2.1
							c-2.2,1-3.5,2.1-3.8,3.3c-0.4,1.3,0.2,2.8,1.6,4.7c1.8,2.2,4.9,4.8,9.3,7.6c3.5,2.3,7.9,4,12.9,5.2c4.9,1.1,10.2,1.7,15.9,1.7
							c6.2,0,12.6-0.7,19-2.1c6.5-1.4,12.7-3.4,18.3-6.1c5.9-2.8,11.1-6.1,15.4-9.9c4.6-4,8.1-8.6,10.4-13.5
							c3.4-7.3,4.2-15.3,2.2-23.8c-2.2-9.5-7.7-19.7-16.5-30.3l-1.1-1.4l1.8-0.2c0.2,0,4.6-0.6,11.4-0.6c4,0,8,0.2,11.9,0.6
							c4.9,0.5,9.6,1.4,14,2.5c11.3,2.9,20.7,7.9,28,14.6c5.6,5.2,10.6,11.2,14.8,17.9c3.3,5.3,6.2,11.1,8.5,17.1
							c2.1,5.5,3.3,10.1,3.9,13.3c1-3.8,2.7-9.7,5.1-16.2c2.4-6.7,5-12.9,7.7-18.4c3.4-6.8,7.1-12.6,10.9-17l0.8-0.9l0.8,0.9
							c0,0,3.4,4,10,8.1c3.9,2.4,8.1,4.4,12.6,6c5.6,1.9,11.6,3.2,17.8,3.6c1.1,0.1,2.2,0.1,3.3,0.1c3.5,0,7.1-0.4,10.8-1.2
							c3.9-0.8,7.8-2.1,11.5-3.7c4-1.8,7.8-4,11.4-6.6c3.8-2.8,7.3-6,10.4-9.7c7.2-8.4,12.3-18.9,15.1-31c3.2-14,3.5-30.2,0.6-48.2
							c-2.6-16.9-6.9-29.7-12.8-37.9c-2.5-3.5-5.3-6.2-8.3-7.9c-2.7-1.5-5.5-2.3-8.4-2.3c-3,0-5.9,0.8-8.9,2.4
							c-2.7,1.5-5.3,3.6-7.5,6.2c-2.3,2.8-4.2,6-5.3,9.2c-1.1,3.4-1.5,6.8-1,9.8l-1.9,0.7c-0.1-0.1-1.4-2.4-3.1-6.6
							c-1.6-3.8-3.9-9.8-5.7-17.2c-2-8.3-3-16.4-3-24.3c0.1-9.9,1.8-19.3,5.1-28c2.2-5.7,5.1-11.2,8.7-16.3
							c3.9-5.6,8.7-10.8,14.2-15.6c5.9-5.2,12.8-10,20.6-14.2c8.3-4.6,17.7-8.7,28-12.2c7-2.4,14-4.2,20.9-5.3
							c6.6-1.1,13.2-1.7,19.7-1.7c10.9,0,21.8,1.6,32.3,4.8c9.6,2.9,19.1,7.1,28.3,12.6c15.4,9.2,30.2,22,43.9,38.1
							c5.4,6.3,10.6,13.1,15.6,20.3c4,5.7,7.7,11.7,11.2,17.7c4.7,8.2,7.7,14.3,8.7,16.4c1.3-0.5,4-1.7,7.4-3.8
							c2.8-1.7,5.4-3.7,7.9-5.9c3.1-2.7,5.9-5.8,8.4-9.1c6.3-8.4,10.4-18.3,12.1-29.5c1-6.7,1.3-13.9,0.7-21.5
							c-0.7-8.3-2.3-17.3-5-26.7c-6.3-22.1-17.1-38.3-32.1-48c-6-3.9-12.7-6.7-19.9-8.5c-5.9-1.5-12.2-2.2-18.7-2.2
							c-6.7,0-12.4,0.8-16.1,1.5c-3.9,0.7-6.3,1.5-6.3,1.5l-1.7,0.5l0.4-1.7c0.1-0.2,1.6-6,5.6-14.8c2.3-5.1,5-10.2,8-15.1
							c3.7-6.1,8-11.9,12.5-17.3c11.7-13.7,25.6-24.6,41.6-32.4c9.5-4.6,19.7-8.2,30.5-10.7c11.9-2.7,24.6-4,38-4c2.9,0,6,0.1,9,0.2
							c13.4,0.6,26.5,2.5,39.2,5.7c11.5,2.9,22.8,7,33.6,12c18.2,8.5,35.2,20.1,50.7,34.3c6.1,5.6,12,11.6,17.4,17.9
							c4.4,5,8.5,10.2,12.3,15.5c6.5,8.9,9.7,15,9.7,15l0.1,0.2v0.2v731.8V1081.2z"/>
						<path class="st3" d="M171,248.4c-2.9,0-5.9,0.1-8.9,0.2C50.5,253.4-0.1,348.4-0.1,348.4v731.8h960h0.2h960V348.4
							c0,0-50.6-95-162.1-99.8c-3-0.1-6-0.2-8.9-0.2c-111.2,0-135.2,93.6-135.2,93.6s9.5-3,22.7-3c23,0,57.3,9.1,71.6,59.4
							c22.5,79.1-32.9,98-32.9,98s-48.7-110.2-139.5-110.2c-12.6,0-26,2.1-40.2,7c-116.5,39.7-64.2,132.9-64.2,132.9
							c-2.1-12.7,10-28.7,23.6-28.7c11.8,0,24.7,12.1,30.5,49c11.9,76.3-32.7,101.5-60.8,101.5c-1.2,0-2.3,0-3.4-0.1
							c-27.7-2.1-41.1-18-41.1-18c-16.4,19.2-24.6,55.8-24.6,55.8s-3.3-29.9-27.7-52.4c-16.2-15-39.5-17.5-53.2-17.5
							c-6.8,0-11.3,0.6-11.3,0.6c46.2,55.5-7.6,87.2-49.6,87.2c-11.4,0-21.9-2.3-29.3-7.1c-30.1-19.4,7.4-20.7,18.2-20.7
							c1.7,0,2.7,0,2.7,0s-14.2-25.9-64-27.8c-2.6-0.1-5.1-0.1-7.6-0.1c-45.9,0-79.2,16.2-79.2,16.2s6.8-11.4,22.7-17.2
							c-50.4,3.7-117.2,32.8-117.2,32.8s-66.8-29.1-117.2-32.8c15.9,5.9,22.7,17.2,22.7,17.2s-33.3-16.2-79.2-16.2
							c-2.5,0-5,0-7.6,0.1c-49.8,1.9-64,27.8-64,27.8s1,0,2.7,0c10.8,0,48.3,1.3,18.2,20.7c-7.4,4.8-17.9,7.1-29.3,7.1
							c-42,0-95.8-31.6-49.6-87.2c0,0-4.5-0.6-11.3-0.6c-13.7,0-37,2.5-53.2,17.5c-24.3,22.5-27.7,52.4-27.7,52.4
							s-8.3-36.6-24.6-55.8c0,0-13.4,15.9-41.1,18c-1.1,0.1-2.2,0.1-3.4,0.1c-28.1,0-72.7-25.2-60.8-101.5c5.8-36.9,18.7-49,30.5-49
							c13.6,0,25.7,16.1,23.6,28.7c0,0,52.3-93.3-64.2-132.9c-14.2-4.8-27.6-7-40.2-7c-90.8,0-139.5,110.2-139.5,110.2
							s-55.5-19-32.9-98c14.3-50.3,48.6-59.4,71.6-59.4c13.2,0,22.7,3,22.7,3S282.1,248.4,171,248.4 M171,246.4
							c13.4,0,26.2,1.4,38.2,4.1c10.9,2.5,21.2,6.1,30.7,10.8c16.1,7.9,30.2,18.9,41.9,32.7c4.6,5.4,8.9,11.3,12.6,17.4
							c3,4.9,5.7,10,8.1,15.2c4,8.8,5.6,14.7,5.6,15c0.2,0.7,0,1.5-0.6,2c-0.4,0.4-0.9,0.5-1.4,0.5c-0.2,0-0.4,0-0.6-0.1
							c0,0-2.4-0.7-6.2-1.5c-3.6-0.7-9.2-1.5-15.9-1.4c-6.4,0-12.6,0.7-18.4,2.2c-7.1,1.7-13.7,4.6-19.6,8.4
							c-6.9,4.5-12.9,10.4-18,17.5c-2.8,4-5.3,8.4-7.6,13.2c-2.4,5.1-4.4,10.7-6.1,16.7c-2.6,9.3-4.3,18.2-5,26.5
							c-0.6,7.5-0.4,14.7,0.7,21.3c1.7,11.1,5.8,20.9,12,29.1c2.4,3.2,5.2,6.2,8.3,8.9c2.4,2.1,5.1,4.1,7.8,5.8
							c2.6,1.6,4.8,2.7,6.2,3.3c1.3-2.7,4-8.3,8.3-15.7c3.5-6,7.3-12,11.3-17.8c5-7.2,10.2-14.1,15.6-20.4
							c13.8-16.2,28.7-29,44.2-38.3c9.2-5.5,18.8-9.8,28.5-12.7c10.6-3.2,21.6-4.8,32.6-4.8c6.5,0,13.2,0.6,19.8,1.7
							c6.9,1.2,14,3,21,5.4c10.4,3.5,19.9,7.7,28.2,12.2c7.8,4.3,14.8,9.1,20.8,14.4c5.6,4.9,10.4,10.2,14.3,15.8
							c3.6,5.2,6.6,10.8,8.8,16.5c3.4,8.8,5.1,18.3,5.2,28.3c0,8-1,16.2-3,24.6c-1.8,7.4-4.1,13.5-5.8,17.3
							c-1.8,4.2-3.1,6.6-3.2,6.7c-0.4,0.6-1,1-1.7,1c-0.2,0-0.4,0-0.7-0.1c-0.9-0.3-1.5-1.3-1.3-2.2c0.5-2.8,0.1-6.1-0.9-9.3
							c-1.1-3.2-2.8-6.2-5.1-8.9c-2.1-2.5-4.6-4.5-7.2-5.9c-2.8-1.5-5.6-2.3-8.4-2.2c-2.7,0-5.4,0.7-7.9,2.2
							c-2.8,1.6-5.5,4.2-7.9,7.6c-2.7,3.8-5.1,8.7-7.2,14.6c-2.3,6.5-4.1,14.2-5.4,22.9c-2.8,17.9-2.6,34,0.6,47.9
							c2.8,12,7.8,22.3,14.9,30.6c3.1,3.6,6.5,6.8,10.3,9.5c3.5,2.5,7.2,4.7,11.2,6.4c3.7,1.6,7.5,2.8,11.3,3.7
							c3.6,0.8,7.2,1.2,10.6,1.2c1.1,0,2.2,0,3.2-0.1c6.1-0.5,12-1.7,17.5-3.6c4.4-1.5,8.6-3.5,12.4-5.9c6.5-4,9.8-7.9,9.8-7.9
							c0.4-0.4,0.9-0.7,1.5-0.7c0,0,0,0,0,0c0.6,0,1.1,0.3,1.5,0.7c3.8,4.5,7.5,10.3,11,17.2c2.8,5.5,5.4,11.7,7.8,18.5
							c1.7,4.8,3,9.1,4,12.6c0.7-2.7,1.7-6,3.1-9.7c2.3-6.1,5.2-11.9,8.5-17.3c4.2-6.7,9.2-12.8,14.9-18.1
							c7.4-6.9,17-11.9,28.4-14.9c4.5-1.2,9.2-2,14.1-2.6c3.9-0.4,8-0.6,12-0.6c6.9,0,11.4,0.6,11.6,0.6c0.7,0.1,1.3,0.6,1.6,1.3
							c0.3,0.7,0.1,1.4-0.3,2c-8.7,10.4-14.1,20.5-16.3,29.9c-1.9,8.3-1.2,16.1,2.2,23.1c2.2,4.8,5.6,9.2,10.1,13.1
							c4.2,3.7,9.3,7,15.2,9.7c5.6,2.6,11.7,4.6,18.1,6c6.3,1.3,12.6,2,18.8,2c5.6,0,10.9-0.6,15.7-1.7c4.9-1.2,9.1-2.9,12.6-5.1
							c4.3-2.8,7.3-5.2,9-7.4c0.8-1.1,1.8-2.6,1.4-3.8c-0.3-1-1.4-1.9-3.3-2.7c-1.9-0.8-4.5-1.5-7.8-2.1c-6.1-1-12.9-1.1-16.5-1.1
							c-1.6,0-2.7,0-2.7,0c0,0,0,0-0.1,0c-0.7,0-1.3-0.4-1.7-1c-0.4-0.6-0.4-1.4,0-2c0.2-0.3,3.9-7,13.9-13.9
							c5.8-4,12.6-7.3,20.2-9.7c9.4-3,20-4.8,31.5-5.3c2.5-0.1,5.1-0.1,7.6-0.1c10.6,0,21.4,0.9,32.1,2.6c8.6,1.4,17.1,3.2,25.3,5.6
							c6.2,1.8,11.2,3.5,15,5c0,0,0,0-0.1-0.1c-2-2-4.3-3.8-6.7-5.4c-3-2-6.3-3.6-9.7-4.9c-0.9-0.3-1.5-1.3-1.3-2.3
							c0.2-0.9,1-1.6,2-1.6c0,0,0.1,0,0.1,0c11.6,0.8,25,3.1,39.9,6.7c11.9,2.9,24.7,6.6,38.1,11.1c20,6.7,35.5,13.2,39.1,14.7
							c3.6-1.5,19.1-8,39.1-14.7c13.4-4.5,26.2-8.3,38.1-11.1c14.9-3.6,28.3-5.9,39.9-6.7c0,0,0.1,0,0.1,0c0.9,0,1.8,0.7,2,1.6
							c0.2,1-0.3,2-1.3,2.3c-7.6,2.8-13,6.9-16.5,10.3c3.8-1.4,8.8-3.2,15-5c8.2-2.4,16.8-4.3,25.3-5.6c10.7-1.7,21.5-2.6,32.1-2.6
							c2.5,0,5.1,0,7.6,0.1c11.5,0.5,22.1,2.2,31.5,5.3c7.6,2.4,14.3,5.7,20.2,9.7c10,6.9,13.8,13.6,13.9,13.9c0.3,0.6,0.3,1.4,0,2
							c-0.4,0.6-1,1-1.7,1c0,0,0,0-0.1,0c0,0-1,0-2.7,0c-3.5,0-10.4,0.1-16.5,1.1c-3.3,0.5-5.9,1.2-7.8,2.1c-1.9,0.8-3,1.8-3.3,2.7
							c-0.3,1.2,0.6,2.7,1.4,3.8c1.7,2.1,4.8,4.6,9,7.4c3.4,2.2,7.7,3.9,12.6,5.1c4.8,1.1,10.1,1.7,15.7,1.7c6.2,0,12.5-0.7,18.8-2
							c6.4-1.4,12.5-3.4,18.1-6c5.9-2.7,11-6,15.2-9.7c4.5-4,7.9-8.4,10.1-13.1c3.3-7.1,4-14.9,2.2-23.1
							c-2.1-9.4-7.6-19.4-16.3-29.9c-0.5-0.6-0.6-1.3-0.3-2c0.3-0.7,0.9-1.2,1.6-1.3c0.2,0,4.7-0.6,11.6-0.6c4.1,0,8.1,0.2,12,0.6
							c4.9,0.5,9.7,1.4,14.1,2.6c11.4,3,21,8,28.4,14.9c5.7,5.3,10.7,11.3,14.9,18.1c3.4,5.4,6.2,11.2,8.5,17.3
							c1.4,3.6,2.4,6.9,3.1,9.7c1-3.5,2.4-7.8,4-12.6c2.4-6.8,5-13,7.8-18.5c3.5-6.9,7.2-12.7,11-17.2c0.4-0.4,0.9-0.7,1.5-0.7
							c0,0,0,0,0,0c0.6,0,1.1,0.3,1.5,0.7c0,0,3.3,3.9,9.8,7.9c3.8,2.4,8,4.3,12.4,5.9c5.5,1.9,11.4,3.1,17.5,3.6
							c1,0.1,2.1,0.1,3.2,0.1c3.4,0,7-0.4,10.6-1.2c3.8-0.8,7.6-2,11.3-3.7c3.9-1.7,7.7-3.9,11.2-6.4c3.8-2.7,7.2-5.9,10.3-9.5
							c7.1-8.3,12.1-18.6,14.9-30.6c3.2-13.9,3.4-30,0.6-47.9c-1.4-8.7-3.2-16.4-5.4-22.9c-2-5.9-4.5-10.8-7.2-14.6
							c-2.4-3.4-5.1-6-7.9-7.6c-2.5-1.5-5.2-2.2-7.9-2.2c-2.8,0-5.6,0.8-8.4,2.3c-2.6,1.4-5.1,3.5-7.2,5.9c-2.3,2.7-4,5.8-5.1,8.9
							c-1.1,3.2-1.4,6.4-0.9,9.3c0.2,1-0.4,1.9-1.3,2.2c-0.2,0.1-0.4,0.1-0.7,0.1c-0.7,0-1.4-0.4-1.7-1c-0.1-0.1-1.4-2.5-3.2-6.7
							c-1.6-3.8-3.9-9.9-5.8-17.3c-2.1-8.3-3.1-16.6-3-24.6c0.1-10,1.8-19.5,5.2-28.3c2.2-5.8,5.2-11.4,8.8-16.5
							c3.9-5.6,8.8-10.9,14.3-15.8c6-5.2,13-10,20.8-14.4c8.3-4.6,17.8-8.7,28.2-12.2c7-2.4,14.1-4.2,21-5.4
							c6.6-1.1,13.3-1.7,19.8-1.7c11,0,22,1.6,32.6,4.8c9.7,2.9,19.2,7.2,28.5,12.7c15.5,9.3,30.4,22.1,44.2,38.3
							c5.4,6.3,10.7,13.2,15.6,20.4c4,5.8,7.8,11.7,11.3,17.8c4.3,7.4,7,13,8.3,15.7c1.4-0.6,3.7-1.7,6.4-3.4
							c2.7-1.7,5.3-3.7,7.8-5.8c3-2.7,5.8-5.7,8.2-8.9c6.2-8.2,10.2-18,11.9-29.1c1-6.6,1.2-13.7,0.6-21.2c-0.7-8.3-2.3-17.2-5-26.4
							c-1.7-6-3.8-11.6-6.1-16.7c-2.2-4.8-4.8-9.2-7.6-13.2c-5.1-7.2-11.1-13.1-18-17.5c-5.9-3.8-12.5-6.6-19.6-8.4
							c-5.8-1.4-12-2.2-18.4-2.2c-6.6,0-12.3,0.8-15.8,1.5c-3.9,0.7-6.2,1.4-6.3,1.5c-0.2,0.1-0.4,0.1-0.6,0.1c-0.5,0-1-0.2-1.4-0.5
							c-0.5-0.5-0.7-1.2-0.6-1.9c0.1-0.2,1.6-6.1,5.6-15c2.4-5.2,5.1-10.3,8.1-15.2c3.8-6.2,8-12,12.6-17.4
							c11.7-13.8,25.8-24.8,41.9-32.7c9.5-4.7,19.9-8.3,30.7-10.8c11.9-2.7,24.8-4.1,38.2-4.1c0,0,0,0,0,0c3,0,6,0.1,9,0.2
							c13.4,0.6,26.7,2.5,39.4,5.7c11.5,2.9,22.9,7,33.7,12.1c18.3,8.6,35.4,20.2,51,34.4c6.1,5.6,12,11.6,17.5,17.9
							c4.4,5,8.6,10.3,12.4,15.5c6.5,9,9.7,14.9,9.8,15.1c0.2,0.3,0.2,0.6,0.2,0.9v731.8c0,1.1-0.9,2-2,2h-960h-0.2h-960
							c-1.1,0-2-0.9-2-2V348.4c0-0.3,0.1-0.7,0.2-0.9c0.1-0.2,3.3-6.2,9.8-15.1c3.8-5.3,8-10.5,12.4-15.5
							c5.5-6.3,11.4-12.3,17.5-17.9c15.6-14.3,32.7-25.9,51-34.4c10.8-5.1,22.2-9.2,33.7-12.1c12.7-3.2,26-5.2,39.4-5.7
							C165,246.5,168,246.4,171,246.4z"/>
					</g>
					<path class="st13" d="M1369.1,688.6c1.6-7.1,6.7-24.6,14.1-38.5c11.2,6.8,23.9,10.7,36.9,11.6c1.4,0.1,2.9,0.2,4.4,0.2
						c20.6,0,41.4-9.9,55.5-26.4c12.9-15.1,26.7-43.1,19.2-91.3c-8.3-52.9-31.3-60.8-44.3-60.8c-7.4,0.1-14.5,2.5-20.4,7
						c-1.5-10.5-1.3-22.7,3.3-34.6c8.3-21.5,29.3-38.1,62.2-49.3c11.5-4,23.5-6.1,35.7-6.2c80.4,0,126.2,100.9,126.7,101.9l5.2,11.7
						l12.1-4.1c1.8-0.6,18.3-6.6,31.6-24.2c12-15.9,23.5-44.5,10.3-90.9c-17.3-60.6-60.7-69.6-85.1-69.6h-0.3
						c4.2-7.7,9.2-15,15-21.6c23.6-27.2,56.5-41,97.9-41c2.7,0,5.5,0.1,8.3,0.2c42.5,1.9,80.6,17.8,113.3,47.4
						c13.7,12.4,25.6,26.6,35.4,42.2"/>
					<path class="st14" d="M1699.7,301.1c0,0,44.9-47.3,132.6,0"/>
					<path class="st13" d="M578.5,687.1c0-0.2,3.3-25.2,23.2-43.6c8.3-7.6,19.4-11.1,29.1-12.7c-9.1,20-6.2,35.8-1.2,46.6
						c12.9,27.5,48.8,40.1,76.7,40.1c14.7,0,27.4-3.2,36.9-9.3c5.3-3.4,21.6-13.9,17.2-29.1c-1.5-5.2-4.9-9.2-10.4-12
						c9.4-3.2,19.3-4.9,29.3-5.2c2.3-0.1,4.7-0.1,7-0.1c41.8,0,72.8,14.6,73.1,14.8l42.1,20.2l-17.1-28.4
						c23.8,6.4,47.2,14.4,69.9,24l5.6,2.4l5.6-2.4c22.7-9.6,46.1-17.6,69.9-24l-17.3,28.8l42.4-20.6c0.3-0.1,31.3-14.8,73.1-14.8
						c2.3,0,4.7,0,7,0.1c10,0.2,19.8,2,29.3,5.2c-5.5,2.8-8.8,6.8-10.4,12c-4.5,15.2,11.8,25.7,17.2,29.1c9.5,6.1,22.2,9.3,36.9,9.3
						c27.9,0,63.7-12.5,76.7-40.1c5.1-10.8,7.9-26.6-1.2-46.6c9.8,1.5,20.9,5,29.1,12.7c20,18.5,23.2,43.5,23.3,43.7"/>
					<path class="st13" d="M13.9,352.2c9.8-15.6,21.7-29.9,35.4-42.2c32.6-29.6,70.8-45.5,113.3-47.4c2.8-0.1,5.6-0.2,8.3-0.2
						c41.3,0,74.3,13.8,97.9,41c5.7,6.6,10.8,13.9,15,21.6h-0.3c-24.4,0-67.8,9-85.1,69.6c-13.2,46.4-1.7,75.1,10.3,90.9
						c13.3,17.5,29.7,23.5,31.6,24.2l12.1,4.1l5.2-11.7c0.4-1,46.2-101.9,126.6-101.9c12.2,0.1,24.2,2.2,35.7,6.2
						c33,11.2,53.9,27.8,62.2,49.3c4.6,12,4.8,24.2,3.3,34.6c-5.9-4.4-13-6.9-20.4-7c-13,0-36.1,7.9-44.3,60.8
						c-7.5,48.2,6.3,76.2,19.2,91.3c14.1,16.5,34.9,26.4,55.5,26.4c1.5,0,3-0.1,4.4-0.2c13.1-0.8,25.7-4.8,36.9-11.6
						c7.5,13.9,12.5,31.4,14.1,38.5"/>
					<path class="st14" d="M83.7,317.7c0,0,45.1-56.9,131.2-27.3"/>
					<g>
						<path class="st6" d="M1921.1,1081.2h-1h-960h-0.2h-960h-1v-1V555.4v-0.3l0.2-0.3c0.1-0.2,3.3-4.4,9.7-10.8
							c3.8-3.8,7.9-7.5,12.3-11.1c5.5-4.5,11.3-8.8,17.4-12.8c15.5-10.2,32.6-18.4,50.7-24.6c10.8-3.6,22.1-6.5,33.5-8.6
							c12.6-2.3,25.8-3.7,39.1-4.1c3-0.1,6-0.1,9-0.1c13.3,0,26.1,1,37.9,2.9c10.8,1.7,21,4.3,30.5,7.6
							c15.9,5.6,29.9,13.4,41.6,23.3c4.6,3.9,8.8,8,12.6,12.4c3,3.5,5.7,7.2,8.1,10.9c4,6.3,5.5,10.5,5.6,10.7l0.6,1.7l-1.8-0.4
							c-0.1,0-9.6-2.1-22.5-2.1c-6.5,0-12.8,0.5-18.7,1.6c-7.2,1.3-13.9,3.3-19.9,6.1c-7,3.2-13.1,7.5-18.3,12.8
							c-2.8,2.9-5.4,6.1-7.6,9.5c-2.4,3.7-4.4,7.7-6.2,12c-6.8,17.1-7.1,31.9-0.8,43.9c2.3,4.4,5.4,8.4,9.3,12
							c3.2,2.9,6.8,5.5,10.9,7.7c5.6,3.1,10.4,4.6,12.2,5.1c1-1.6,3.9-5.9,8.7-11.8c3.5-4.3,7.3-8.6,11.2-12.7
							c4.9-5.1,10.2-10.1,15.6-14.6c13.7-11.5,28.5-20.7,43.9-27.3c9.2-3.9,18.7-6.9,28.2-9c10.5-2.3,21.4-3.4,32.3-3.4
							c13.2,0,26.8,1.7,40.4,5c11.6,2.8,22.1,6.2,31.1,10c8.4,3.5,15.7,7.5,21.8,11.8c5.6,4,10.3,8.4,13.9,13
							c3.3,4.2,5.8,8.7,7.4,13.4c2,5.8,2.7,11.9,2.2,18.3c-0.4,5.1-1.7,10.3-3.7,15.5c-3.4,8.9-7.9,14.6-8.1,14.8l-1.8-0.8
							c0.7-3.1-0.4-6.7-3.1-10.1c-2.1-2.7-5-4.9-8.3-6.6c-3.6-1.8-7.4-2.7-11.2-2.7c-3,0-5.8,0.6-8.5,1.7c-3,1.2-5.8,3.1-8.3,5.7
							c-5.8,5.9-10.1,14.9-12.7,27c-2.3,10.6-2.6,20.3-0.8,28.9c1.6,7.7,4.8,14.6,9.6,20.5c3.1,3.8,6.8,7.2,11.1,10.2
							c3.9,2.7,8.4,5,13.1,6.9c8.5,3.3,18,5.1,26.9,5.1c1.1,0,2.2,0,3.3-0.1c6.2-0.3,12.3-1.2,17.9-2.6c4.5-1.1,8.8-2.6,12.6-4.3
							c6.6-3,10-5.8,10-5.8l0.6-0.5l0.6,0.5c3.8,3.2,7.5,7.3,10.9,12.2c2.7,3.9,5.4,8.4,7.8,13.2c2.4,4.8,4.1,9,5.1,11.8
							c0.7-2.3,1.9-5.7,4-9.7c2.3-4.3,5.1-8.5,8.5-12.3c4.2-4.8,9.2-9.1,14.8-12.9c7.3-4.8,16.7-8.4,27.9-10.5
							c5.5-1,14.4-2.3,25.8-2.3c6.8,0,11.3,0.4,11.4,0.5l2.3,0.2l-1.8,1.5c-7.6,6.6-12.8,12.9-15.4,18.9c-2.3,5.4-2.6,10.5-0.9,15.2
							c1.5,4.1,4.5,7.8,8.9,11.3c4.1,3.2,9.5,6,15.8,8.4c11.8,4.4,26.5,6.9,40.5,6.9c5.7,0,11.1-0.4,16-1.2c5-0.9,9.4-2.1,12.9-3.8
							c4.2-1.9,7.2-3.7,9-5.2c1.4-1.2,2-2.2,1.9-2.9c-0.2-0.8-1.4-1.6-3.4-2.3c-2-0.7-4.7-1.2-8.1-1.6c-6.3-0.8-13.4-0.9-17.1-0.9
							c-1.7,0-2.7,0-2.7,0l-2.1,0l1.3-1.7c0.2-0.2,3.8-4.9,13.7-9.7c5.7-2.8,12.4-5.1,19.9-6.9c9.3-2.2,19.8-3.4,31.2-3.7
							c2.5-0.1,5.1-0.1,7.6-0.1c10.5,0,21.2,0.6,31.9,1.8c8.5,1,17,2.3,25.2,4c8.1,1.7,14.4,3.4,18.2,4.5c-0.6-0.5-1.3-1-2.1-1.6
							c-2.1-1.4-4.4-2.8-6.9-3.9c-3.1-1.5-6.5-2.7-10-3.6l0.3-2c11.5,0.6,24.9,2.2,39.7,4.8c11.8,2.1,24.6,4.7,38,8
							c21.1,5.1,37.1,10,39.5,10.7c2.4-0.7,18.4-5.6,39.5-10.7c13.4-3.2,26.2-5.9,38-8c14.8-2.6,28.1-4.2,39.7-4.8l0.3,2
							c-3.5,0.9-6.9,2.2-10,3.6c-2.5,1.2-4.8,2.5-6.9,3.9c-0.8,0.5-1.5,1.1-2.1,1.6c3.8-1.1,10.1-2.8,18.2-4.5
							c8.2-1.7,16.7-3,25.2-4c10.6-1.2,21.4-1.8,31.9-1.8c2.5,0,5.1,0,7.6,0.1c11.4,0.3,21.9,1.6,31.2,3.7c7.4,1.7,14.1,4,19.9,6.9
							c9.9,4.9,13.5,9.5,13.7,9.7l1.3,1.7l-2.1,0c0,0-1,0-2.7,0c-3.7,0-10.8,0.1-17.1,0.9c-3.4,0.4-6.2,1-8.1,1.6
							c-2,0.7-3.2,1.5-3.4,2.3c-0.2,0.7,0.5,1.8,1.9,2.9c1.8,1.5,4.8,3.3,9,5.2c3.5,1.6,7.9,2.9,12.9,3.8c4.9,0.8,10.2,1.2,16,1.2
							c14,0,28.7-2.5,40.5-6.9c6.3-2.4,11.6-5.2,15.8-8.4c4.4-3.4,7.4-7.2,8.9-11.3c1.8-4.7,1.5-9.8-0.9-15.2
							c-2.6-6-7.8-12.4-15.4-18.9l-1.8-1.5l2.3-0.2c0,0,4.6-0.5,11.4-0.5c6.3,0,15.9,0.4,25.8,2.3c11.2,2.1,20.6,5.6,27.9,10.5
							c5.6,3.7,10.6,8.1,14.8,12.9c3.4,3.8,6.2,8,8.5,12.3c2.1,4,3.3,7.4,4,9.7c1-2.7,2.7-7,5.1-11.8c2.4-4.9,5-9.3,7.8-13.2
							c3.5-4.9,7.1-9,10.9-12.2l0.6-0.5l0.6,0.5c0,0,3.4,2.8,10,5.8c3.9,1.7,8.2,3.2,12.6,4.3c5.6,1.4,11.6,2.3,17.9,2.6
							c1.1,0.1,2.2,0.1,3.3,0.1c8.9,0,18.4-1.8,26.9-5.1c4.8-1.9,9.2-4.2,13.1-6.9c4.3-2.9,8-6.4,11.1-10.2c4.8-5.9,8-12.8,9.6-20.5
							c1.8-8.6,1.5-18.4-0.8-28.9c-2.6-12.1-6.9-21.1-12.7-27c-2.5-2.5-5.3-4.4-8.3-5.7c-2.7-1.1-5.6-1.7-8.5-1.7
							c-3.8,0-7.7,0.9-11.2,2.7c-3.3,1.7-6.2,3.9-8.3,6.6c-2.7,3.4-3.8,7-3.1,10.1l-1.8,0.8c-0.2-0.2-4.6-6-8.1-14.8
							c-2-5.2-3.3-10.4-3.7-15.5c-0.5-6.4,0.2-12.5,2.2-18.3c1.6-4.7,4.1-9.2,7.4-13.4c3.6-4.6,8.3-9,13.9-13
							c6.1-4.3,13.4-8.3,21.8-11.8c9-3.8,19.5-7.2,31.1-10c7-1.7,14-3,20.8-3.8c6.6-0.8,13.2-1.2,19.6-1.2c10.9,0,21.7,1.1,32.3,3.4
							c9.6,2.1,19,5.1,28.2,9c15.4,6.6,30.2,15.8,43.9,27.3c5.4,4.5,10.6,9.4,15.6,14.6c4,4.1,7.7,8.4,11.2,12.7
							c4.8,5.9,7.7,10.3,8.7,11.8c1.7-0.5,6.6-2,12.2-5.1c4.1-2.2,7.8-4.8,10.9-7.7c3.9-3.6,7.1-7.6,9.3-12
							c6.2-12.1,5.9-26.9-0.8-43.9c-1.7-4.3-3.8-8.3-6.2-12c-2.2-3.5-4.8-6.7-7.6-9.5c-5.1-5.2-11.3-9.5-18.3-12.8
							c-6-2.8-12.7-4.8-19.9-6.1c-5.9-1-12.2-1.6-18.7-1.6c-12.9,0-22.4,2.1-22.5,2.1l-1.8,0.4l0.6-1.7c0.1-0.2,1.6-4.4,5.6-10.7
							c2.3-3.7,5.1-7.3,8.1-10.9c3.8-4.4,8-8.6,12.6-12.4c11.7-9.8,25.6-17.6,41.6-23.3c9.5-3.3,19.7-5.9,30.5-7.6
							c11.8-1.9,24.6-2.9,37.9-2.9c2.9,0,6,0,9,0.1c13.3,0.4,26.5,1.8,39.1,4.1c11.5,2.1,22.8,5,33.5,8.6
							c18.2,6.1,35.2,14.4,50.7,24.6c6.1,4,12,8.3,17.4,12.8c4.4,3.6,8.5,7.3,12.3,11.1c6.5,6.4,9.6,10.6,9.7,10.8l0.2,0.3v0.3
							v524.8V1081.2z"/>
						<path class="st3" d="M171,483.7c-2.9,0-5.9,0-8.9,0.1C50.5,487.3-0.1,555.4-0.1,555.4v524.8h960h0.2h960V555.4
							c0,0-50.6-68.1-162.1-71.6c-3-0.1-6-0.1-8.9-0.1c-111.2,0-135.2,67.1-135.2,67.1s9.5-2.1,22.7-2.1c23,0,57.3,6.6,71.6,42.6
							c22.5,56.7-32.9,70.3-32.9,70.3s-48.7-79-139.5-79c-12.6,0-26,1.5-40.2,5c-116.5,28.4-64.2,95.3-64.2,95.3
							c-2.1-9.1,10-20.6,23.6-20.6c11.8,0,24.7,8.7,30.5,35.1c11.9,54.7-32.7,72.8-60.8,72.8c-1.2,0-2.3,0-3.4-0.1
							c-27.7-1.5-41.1-12.9-41.1-12.9c-16.4,13.7-24.6,40-24.6,40s-3.3-21.4-27.7-37.6c-16.2-10.8-39.5-12.6-53.2-12.6
							c-6.8,0-11.3,0.4-11.3,0.4c46.2,39.8-7.6,62.5-49.6,62.5c-11.4,0-21.9-1.7-29.3-5.1c-30.1-13.9,7.4-14.9,18.2-14.9
							c1.7,0,2.7,0,2.7,0s-14.2-18.5-64-19.9c-2.6-0.1-5.1-0.1-7.6-0.1c-45.9,0-79.2,11.6-79.2,11.6s6.8-8.2,22.7-12.4
							c-50.4,2.6-117.2,23.5-117.2,23.5s-66.8-20.9-117.2-23.5c15.9,4.2,22.7,12.4,22.7,12.4S832.2,770,786.3,770
							c-2.5,0-5,0-7.6,0.1c-49.8,1.4-64,19.9-64,19.9s1,0,2.7,0c10.8,0,48.3,0.9,18.2,14.9c-7.4,3.4-17.9,5.1-29.3,5.1
							c-42,0-95.8-22.7-49.6-62.5c0,0-4.5-0.4-11.3-0.4c-13.7,0-37,1.8-53.2,12.6c-24.3,16.1-27.7,37.6-27.7,37.6s-8.3-26.3-24.6-40
							c0,0-13.4,11.4-41.1,12.9c-1.1,0.1-2.2,0.1-3.4,0.1c-28.1,0-72.7-18.1-60.8-72.8c5.8-26.5,18.7-35.1,30.5-35.1
							c13.6,0,25.7,11.5,23.6,20.6c0,0,52.3-66.9-64.2-95.3c-14.2-3.5-27.6-5-40.2-5c-90.8,0-139.5,79-139.5,79
							s-55.5-13.6-32.9-70.3c14.3-36.1,48.6-42.6,71.6-42.6c13.2,0,22.7,2.1,22.7,2.1S282.1,483.7,171,483.7 M171,481.7
							c13.4,0,26.2,1,38,2.9c10.8,1.8,21.1,4.3,30.6,7.7c16.1,5.6,30.2,13.5,41.9,23.4c4.6,3.9,8.9,8.1,12.7,12.6
							c3,3.6,5.8,7.2,8.1,11c4.1,6.4,5.6,10.7,5.7,10.9c0.2,0.7,0.1,1.5-0.4,2c-0.4,0.4-0.9,0.7-1.5,0.7c-0.1,0-0.3,0-0.4,0
							c-0.1,0-9.5-2.1-22.3-2.1c-6.5,0-12.7,0.5-18.6,1.6c-7.1,1.3-13.8,3.3-19.7,6c-6.9,3.2-12.9,7.4-18,12.5
							c-2.8,2.8-5.3,6-7.5,9.4c-2.3,3.6-4.4,7.6-6.1,11.8c-6.7,16.8-7,31.3-0.9,43.1c2.2,4.3,5.3,8.2,9.1,11.7
							c3.1,2.8,6.7,5.4,10.7,7.6c4.9,2.7,9.1,4.1,11.2,4.8c1.3-1.9,4.1-6,8.3-11.3c3.5-4.3,7.3-8.6,11.3-12.8
							c5-5.2,10.2-10.1,15.7-14.7c13.8-11.6,28.7-20.8,44.2-27.5c9.2-3.9,18.8-7,28.4-9.1c10.6-2.3,21.5-3.4,32.5-3.4
							c13.3,0,27,1.7,40.7,5c11.7,2.9,22.2,6.2,31.3,10c8.4,3.6,15.8,7.6,22,11.9c5.7,4,10.4,8.5,14.1,13.2
							c3.4,4.3,5.9,8.9,7.6,13.7c2,5.9,2.8,12.2,2.3,18.7c-0.4,5.2-1.7,10.5-3.8,15.8c-3.5,9-8,14.8-8.2,15.1
							c-0.4,0.5-1,0.8-1.6,0.8c-0.3,0-0.6-0.1-0.9-0.2c-0.8-0.4-1.3-1.3-1.1-2.3c0.3-1.4,0.2-2.9-0.3-4.4c-0.5-1.6-1.4-3.2-2.6-4.8
							c-2-2.5-4.8-4.7-8-6.3c-3.4-1.7-7.1-2.6-10.8-2.6c-2.8,0-5.6,0.5-8.2,1.6c-2.9,1.2-5.5,3-7.9,5.4c-2.7,2.7-5.1,6.2-7.1,10.3
							c-2.2,4.6-4,10-5.4,16.2c-2.3,10.4-2.5,20-0.8,28.5c1.5,7.5,4.7,14.3,9.4,20.1c3,3.7,6.7,7.1,10.9,10
							c3.9,2.7,8.2,4.9,12.9,6.8c8.3,3.2,17.7,5,26.5,5c1.1,0,2.2,0,3.3-0.1c6.2-0.3,12.1-1.2,17.6-2.6c4.4-1.1,8.6-2.5,12.5-4.2
							c6.5-2.9,9.8-5.6,9.9-5.7c0.4-0.3,0.8-0.5,1.3-0.5c0.5,0,0.9,0.2,1.3,0.5c3.9,3.2,7.6,7.4,11.1,12.4c2.8,4,5.4,8.5,7.9,13.4
							c1.7,3.5,3.1,6.7,4.1,9.3c0.7-2,1.8-4.5,3.2-7.2c2.3-4.4,5.2-8.6,8.6-12.5c4.2-4.9,9.3-9.3,15-13c7.4-4.9,16.9-8.5,28.3-10.6
							c5.5-1,14.5-2.3,26-2.3c6.9,0,11.3,0.4,11.5,0.5c0.8,0.1,1.5,0.6,1.7,1.4c0.2,0.8,0,1.6-0.6,2.1c-7.5,6.5-12.6,12.7-15.1,18.6
							c-1.1,2.6-1.8,5.2-1.9,7.7c-0.1,2.3,0.2,4.6,1.1,6.8c1.4,3.9,4.3,7.5,8.6,10.8c4.1,3.1,9.3,5.9,15.5,8.2
							c11.7,4.4,26.3,6.9,40.2,6.9c11.5,0,21.6-1.7,28.5-4.9c10.3-4.8,10.3-7,10.3-7c0,0-0.7-2-10.7-3.2c-6.2-0.8-13.3-0.9-17-0.9
							c-1.6,0-2.7,0-2.7,0c0,0,0,0,0,0c-0.8,0-1.4-0.4-1.8-1.1c-0.3-0.7-0.3-1.5,0.2-2.1c0.2-0.2,3.9-5.1,14-10
							c5.8-2.9,12.6-5.2,20.1-6.9c9.3-2.2,19.9-3.4,31.4-3.8c2.5-0.1,5.1-0.1,7.6-0.1c10.5,0,21.3,0.6,32,1.8c8.5,1,17,2.3,25.3,4
							c4.9,1,9.1,2,12.4,2.9c-1.2-0.7-2.5-1.4-3.9-2c-3-1.4-6.3-2.6-9.8-3.5c-1-0.3-1.6-1.2-1.5-2.2c0.2-1,1-1.7,2-1.7
							c0,0,0.1,0,0.1,0c11.6,0.6,25,2.2,39.8,4.8c11.9,2.1,24.7,4.7,38.1,8c20.4,4.9,36.1,9.6,39.3,10.6c3.2-1,18.8-5.7,39.3-10.6
							c13.4-3.2,26.2-5.9,38.1-8c14.8-2.6,28.2-4.2,39.8-4.8c0,0,0.1,0,0.1,0c1,0,1.8,0.7,2,1.7c0.2,1-0.5,2-1.5,2.2
							c-3.5,0.9-6.7,2.1-9.8,3.5c-1.3,0.6-2.6,1.3-3.9,2c3.4-0.9,7.6-1.9,12.4-2.9c8.2-1.7,16.7-3,25.3-4c10.7-1.2,21.4-1.8,32-1.8
							c2.5,0,5.1,0,7.6,0.1c11.5,0.3,22,1.6,31.4,3.8c7.5,1.7,14.3,4.1,20.1,6.9c10.1,5,13.9,9.8,14,10c0.5,0.6,0.5,1.4,0.2,2.1
							c-0.3,0.7-1,1.1-1.8,1.1c0,0,0,0,0,0c0,0-1,0-2.7,0c-3.7,0-10.7,0.1-17,0.9c-9.9,1.2-10.6,3.2-10.7,3.2c0,0,0,2.2,10.3,7
							c6.9,3.2,17,4.9,28.5,4.9c13.8,0,28.5-2.5,40.2-6.9c6.2-2.3,11.4-5.1,15.5-8.2c4.3-3.3,7.2-6.9,8.6-10.8
							c0.8-2.2,1.2-4.4,1.1-6.8c-0.1-2.5-0.8-5.1-1.9-7.7c-2.6-5.9-7.6-12.1-15.1-18.6c-0.6-0.5-0.8-1.4-0.6-2.1
							c0.2-0.8,0.9-1.3,1.7-1.4c0.2,0,4.6-0.5,11.5-0.5c6.3,0,16,0.4,26,2.3c11.4,2.1,20.9,5.7,28.3,10.6c5.7,3.8,10.7,8.2,15,13
							c3.4,3.9,6.3,8.1,8.6,12.5c1.4,2.7,2.4,5.1,3.2,7.2c1-2.5,2.4-5.7,4.1-9.3c2.4-4.9,5.1-9.4,7.9-13.4c3.5-5,7.2-9.2,11.1-12.4
							c0.4-0.3,0.8-0.5,1.3-0.5c0.5,0,0.9,0.2,1.3,0.5c0,0,3.3,2.8,9.9,5.7c3.8,1.7,8,3.1,12.5,4.2c5.5,1.4,11.5,2.2,17.6,2.6
							c1.1,0.1,2.2,0.1,3.3,0.1c8.7,0,18.1-1.8,26.5-5c4.7-1.8,9.1-4.1,12.9-6.8c4.2-2.9,7.9-6.2,10.9-10c4.7-5.8,7.8-12.6,9.4-20.1
							c1.7-8.5,1.5-18.1-0.8-28.5c-1.3-6.2-3.2-11.6-5.4-16.2c-2-4.1-4.4-7.6-7.1-10.3c-2.4-2.4-5.1-4.3-7.9-5.4
							c-2.6-1.1-5.3-1.6-8.2-1.6c-3.6,0-7.3,0.9-10.8,2.6c-3.2,1.6-6,3.8-8,6.3c-1.2,1.6-2.1,3.2-2.6,4.8c-0.5,1.6-0.6,3.1-0.3,4.4
							c0.2,0.9-0.2,1.9-1.1,2.3c-0.3,0.1-0.6,0.2-0.9,0.2c-0.6,0-1.2-0.3-1.6-0.8c-0.2-0.2-4.7-6.1-8.2-15.1
							c-2.1-5.3-3.3-10.6-3.8-15.8c-0.6-6.5,0.2-12.8,2.3-18.7c1.7-4.8,4.2-9.4,7.6-13.7c3.7-4.7,8.4-9.1,14.1-13.2
							c6.1-4.4,13.5-8.4,22-11.9c9.1-3.8,19.6-7.2,31.3-10c7-1.7,14-3,20.9-3.8c6.6-0.8,13.2-1.2,19.7-1.2c11,0,21.9,1.2,32.5,3.4
							c9.6,2.1,19.2,5.1,28.4,9.1c15.5,6.6,30.4,15.9,44.2,27.5c5.4,4.6,10.7,9.5,15.7,14.7c4,4.1,7.8,8.4,11.3,12.8
							c4.3,5.3,7.1,9.3,8.3,11.3c2.1-0.6,6.4-2.2,11.3-4.8c4-2.2,7.6-4.7,10.7-7.6c3.8-3.5,6.9-7.4,9.1-11.7
							c6.1-11.8,5.8-26.3-0.9-43.1c-1.7-4.2-3.7-8.2-6.1-11.8c-2.2-3.4-4.7-6.6-7.5-9.4c-5-5.1-11.1-9.4-18-12.5
							c-5.9-2.7-12.5-4.8-19.7-6c-5.9-1-12.1-1.6-18.6-1.6c-12.8,0-22.2,2.1-22.3,2.1c-0.1,0-0.3,0-0.4,0c-0.6,0-1.1-0.2-1.5-0.7
							c-0.5-0.5-0.6-1.3-0.4-2c0.1-0.2,1.6-4.5,5.7-10.9c2.4-3.7,5.1-7.4,8.1-11c3.8-4.4,8.1-8.7,12.7-12.6
							c11.7-9.9,25.8-17.8,41.9-23.4c9.5-3.3,19.8-5.9,30.6-7.7c11.9-1.9,24.7-2.9,38-2.9c0,0,0,0,0,0c3,0,6,0,9,0.1
							c13.4,0.4,26.6,1.8,39.3,4.1c11.5,2.1,22.9,5,33.7,8.7c18.2,6.1,35.4,14.4,51,24.7c6.1,4,12,8.4,17.5,12.9
							c4.4,3.6,8.6,7.4,12.4,11.2c6.5,6.5,9.7,10.7,9.8,10.9c0.3,0.3,0.4,0.8,0.4,1.2v524.8c0,1.1-0.9,2-2,2h-960h-0.2h-960
							c-1.1,0-2-0.9-2-2V555.4c0-0.4,0.1-0.8,0.4-1.2c0.1-0.2,3.3-4.5,9.8-10.9c3.8-3.8,8-7.5,12.4-11.2c5.5-4.5,11.4-8.9,17.5-12.9
							c15.6-10.2,32.7-18.5,51-24.7c10.8-3.6,22.1-6.6,33.7-8.7c12.7-2.3,25.9-3.7,39.3-4.1C165,481.8,168,481.7,171,481.7z"/>
					</g>
					<path class="st13" d="M578.4,799.3l0,0.2c0.1-0.6,3.2-16,21.6-28.2c7.9-5.2,18.3-7.8,27.9-9.1c-4.2,10.2-3.2,18.9-0.8,25.5
						c9.3,25,47.6,36.4,79.3,36.3c9.8,0,23.8-1.1,35.2-6.4c6.1-2.8,22.4-10.4,19.2-25c-0.5-2.4-1.5-4.6-3-6.5
						c7.1-1.2,14.2-1.8,21.4-2c2.4-0.1,4.8-0.1,7.2-0.1c42.7,0,74.3,10.7,74.6,10.8l47.7,16.4l-18-21.5
						c34.4,6.8,64.7,16.2,65.2,16.3l4.2,1.3l4.2-1.3c0.4-0.1,30.8-9.5,65.2-16.3l-18.2,21.7l47.9-16.7c0.3-0.1,31.9-10.8,74.6-10.8
						c2.4,0,4.8,0,7.2,0.1c7.2,0.2,14.3,0.8,21.4,2c-1.5,1.9-2.5,4.2-3,6.5c-3.2,14.6,13.1,22.1,19.2,25c11.4,5.3,25.4,6.4,35.2,6.4
						c31.7,0,70-11.4,79.3-36.4c2.4-6.5,3.4-15.2-0.8-25.5c9.5,1.3,20,3.9,27.9,9.1c18.4,12.2,21.5,27.9,21.6,28l27.2,2.1
						c1.6-4.9,6.5-17,13.7-26.4c8.2,3.9,20.8,8.2,37.9,9.2c1.3,0.1,2.7,0.1,4.1,0.1c19.5,0,46.3-7.3,62.8-27.7
						c9.1-11.3,18.5-31.2,11.8-62.1c-9.1-41.7-33.9-46.2-44.2-46.2c-7.4,0.1-14.6,2.1-20.9,5.9c-0.8-4.9-0.4-9.9,1.2-14.6
						c5.8-16.4,27.8-29.7,63.6-38.4c12.1-3,24.4-4.5,36.9-4.6c34,0,65.6,12,94,35.6c21.8,18.1,33.4,36.6,33.5,36.8l5.4,8.6l9.9-2.4
						c1.2-0.3,29.9-7.6,42.9-32.7c8.3-16.1,8.2-35.1-0.2-56.4c-12.6-31.8-40.8-49.9-79.6-51.4c2.7-2.8,5.6-5.5,8.6-7.9
						c23.4-19.1,57.7-29.1,98.9-29.1c2.8,0,5.6,0,8.5,0.1c89.6,2.8,137.1,49.7,148.5,62.6"/>
					<path class="st13" d="M13.9,560.5c10-11,21.5-20.6,34-28.6c32.9-21.3,71.4-32.8,114.5-34.1c2.9-0.1,5.7-0.1,8.5-0.1
						c41.3,0,75.5,10.1,98.9,29.1c3,2.5,5.9,5.1,8.6,7.9c-38.8,1.4-67,19.5-79.6,51.4c-8.5,21.3-8.5,40.3-0.2,56.4
						c12.9,25.1,41.6,32.4,42.9,32.7l9.9,2.4l5.3-8.7c0.1-0.2,11.7-18.6,33.5-36.7c28.4-23.7,60.1-35.6,94.1-35.6
						c12.4,0.1,24.8,1.6,36.9,4.6c35.9,8.8,58,22.1,63.7,38.6c1.6,4.6,2,9.6,1.2,14.4c-6.3-3.8-13.5-5.9-20.9-5.9
						c-10.3,0-35.1,4.5-44.2,46.2c-6.7,30.9,2.7,50.8,11.8,62.1c16.5,20.4,43.2,27.7,62.8,27.7c1.4,0,2.8,0,4.1-0.1
						c17.1-0.9,29.7-5.2,38-9.2c7.3,9.4,12.2,21.6,13.7,26.5"/>
					<path class="st15" d="M959.8,863.1c0,0-66.6-15.7-116.7-17.7c15.8,3.2,22.6,9.3,22.6,9.3s-36.9-9.7-86.4-8.7
						c-49.6,1.1-63.7,15.1-63.7,15.1s55.5-1,20.8,11.2s-137-5.1-78.6-43.4c0,0-40-3-64.2,9.2S566,866.5,566,866.5
						s-8.2-19.8-24.5-30.2c0,0-13.3,8.6-41,9.8s-76.3-11.9-63.9-54.9c12.3-43,57.8-23.8,53.8-11c0,0,52.1-50.5-63.9-72
						s-178.9,55.9-178.9,55.9s-55.2-10.3-32.8-53.1c22.4-42.8,93.9-30.6,93.9-30.6s-25.2-53.4-143.6-50.6
						c-111,2.6-161.4,54.1-161.4,54.1v396.4h956.2L959.8,863.1z"/>
					<g>
						<path class="st8" d="M1921.1,1081.2h-1h-960h-0.2h-960h-1v-1V683.9v-0.4l0.3-0.3c0.1-0.1,3.3-3.3,9.8-8.2
							c3.8-2.8,7.9-5.7,12.3-8.4c5.5-3.4,11.3-6.7,17.4-9.7c15.5-7.7,32.6-13.9,50.7-18.5c22.7-5.8,47.1-9,72.6-9.6
							c3-0.1,6-0.1,9-0.1c13.3,0,26,0.7,37.8,2.2c10.8,1.3,21,3.3,30.4,5.8c15.9,4.2,29.9,10.1,41.6,17.5c4.6,2.9,8.8,6.1,12.6,9.4
							c3,2.7,5.7,5.4,8.1,8.2c4,4.8,5.6,8,5.6,8.1l0.8,1.7l-1.9-0.3c-0.1,0-9.6-1.6-22.5-1.6c-6.5,0-12.8,0.4-18.8,1.2
							c-7.3,1-14,2.5-20,4.6c-15,5.3-25.7,13.9-32,25.8c-3.1,5.9-4.9,11.6-5.2,16.7c-0.3,4.5,0.5,8.8,2.4,12.7
							c1.9,3.9,4.9,7.5,8.9,10.7c3.3,2.6,7.2,4.9,11.7,6.9c6.4,2.8,12.1,4.2,13.9,4.6c1-1.2,3.9-4.4,8.7-9c3.5-3.3,7.3-6.5,11.2-9.6
							c4.9-3.9,10.2-7.6,15.6-11c13.7-8.7,28.5-15.6,43.9-20.6c9.2-3,18.6-5.2,28.2-6.8c10.5-1.7,21.3-2.6,32.2-2.6
							c13.2,0,26.8,1.3,40.4,3.8c12.6,2.3,23.8,5.1,33.3,8.3c8.8,2.9,16.3,6.2,22.5,9.8c10.7,6.3,17.4,13.7,19.9,21.9
							c1.2,4.1,1.4,8.5,0.6,12.9c-0.7,3.5-2,7.1-4,10.7c-3.3,6.1-7.3,9.9-7.5,10.1l-1.7-1c0.6-2.1-0.4-4.1-1.4-5.4
							c-1.7-2.4-4.7-4.5-8.4-6.2c-4-1.8-8.4-2.7-12.8-2.7c-3,0-5.9,0.4-8.6,1.3c-3,0.9-5.8,2.4-8.3,4.3c-5.8,4.4-10,11.2-12.6,20.2
							c-3.6,12.6-2.1,23.5,4.5,32.3c2.8,3.7,6.5,7,11,9.9c4.1,2.6,8.9,4.8,14.2,6.7c4.8,1.6,10,2.9,15.5,3.7c5,0.8,10,1.2,14.8,1.2
							c1.1,0,2.2,0,3.3-0.1c6.3-0.3,12.3-0.9,17.9-2c4.5-0.8,8.8-1.9,12.7-3.2c6.7-2.2,10-4.4,10-4.4l0.5-0.3l0.5,0.3
							c3.8,2.4,7.5,5.5,10.9,9.3c2.8,3,5.4,6.3,7.8,10c2.4,3.7,4.2,7,5.2,9c0.7-1.8,1.9-4.4,4-7.4c2.3-3.3,5.2-6.5,8.5-9.4
							c4.2-3.6,9.2-6.9,14.8-9.7c7.3-3.6,16.7-6.3,27.9-7.9c5.5-0.8,14.4-1.7,25.8-1.7c6.8,0,11.3,0.3,11.4,0.3l2.9,0.2l-2.5,1.6
							c-7,4.5-11.9,9-14.7,13.1c-1.3,1.9-2.1,3.8-2.4,5.6c-0.3,1.7-0.3,3.3,0.2,4.9c1,3.2,3.6,6.3,7.8,9.1c4,2.6,9.3,5,15.8,6.9
							c12.1,3.6,27.5,5.7,42.3,5.7c11.7,0,22-1.3,29-3.8c4.1-1.4,7-2.7,8.9-3.9c1.6-1,2-1.7,1.9-1.9c0-0.1-0.4-1.9-11.3-2.9
							c-6.3-0.6-13.6-0.7-17.3-0.7c-1.7,0-2.7,0-2.7,0l-2.5,0l1.8-1.8c0.2-0.1,3.8-3.7,13.7-7.4c5.7-2.1,12.4-3.9,19.8-5.2
							c9.3-1.6,19.7-2.6,31.1-2.8c2.5-0.1,5.1-0.1,7.6-0.1c10.5,0,21.2,0.5,31.8,1.4c8.5,0.7,17,1.7,25.1,3c7.3,1.1,13.2,2.3,17,3.1
							c-0.2-0.1-0.5-0.3-0.8-0.4c-3.3-1.7-8.9-4.1-16.9-5.7l0.2-2c48.6,1.9,112.2,16.6,117.2,17.7c4.9-1.2,68.6-15.8,117.2-17.7
							l0.2,2c-8,1.6-13.6,4-16.9,5.7c-0.3,0.1-0.5,0.3-0.8,0.4c3.9-0.8,9.7-2,17-3.1c8.2-1.3,16.7-2.3,25.1-3
							c10.6-0.9,21.3-1.4,31.8-1.4c2.5,0,5.1,0,7.6,0.1c11.4,0.2,21.9,1.2,31.1,2.8c7.4,1.3,14.1,3,19.8,5.2
							c9.9,3.7,13.5,7.2,13.7,7.4l1.8,1.8l-2.5,0c0,0-1,0-2.7,0c-3.8,0-11,0.1-17.3,0.7c-10.8,1-11.3,2.8-11.3,2.9
							c0,0.2,0.3,0.9,1.9,1.9c1.8,1.1,4.8,2.4,8.9,3.9c7,2.4,17.3,3.8,29,3.8c14.7,0,30.1-2.1,42.2-5.7c6.5-2,11.8-4.3,15.8-6.9
							c4.2-2.8,6.9-5.8,7.8-9.1c0.5-1.6,0.5-3.2,0.2-4.9c-0.4-1.8-1.2-3.7-2.4-5.6c-2.8-4.2-7.7-8.6-14.7-13.1l-2.5-1.6l2.9-0.2
							c0,0,4.6-0.3,11.4-0.3c6.3,0,15.9,0.3,25.8,1.7c11.2,1.6,20.6,4.2,27.9,7.9c5.6,2.8,10.6,6.1,14.8,9.7
							c3.4,2.9,6.2,6.1,8.5,9.4c2.1,3,3.4,5.7,4,7.4c1-2.1,2.7-5.3,5.2-9c2.4-3.7,5-7.1,7.8-10c3.5-3.7,7.1-6.8,10.9-9.3l0.5-0.3
							l0.5,0.3c0,0,3.4,2.1,10,4.4c3.9,1.3,8.2,2.4,12.7,3.2c5.6,1.1,11.7,1.7,17.9,2c1.1,0,2.2,0.1,3.3,0.1c4.8,0,9.8-0.4,14.8-1.2
							c5.4-0.8,10.6-2.1,15.5-3.7c5.3-1.8,10.1-4,14.2-6.7c4.5-2.9,8.2-6.2,11-9.9c6.6-8.8,8.1-19.6,4.5-32.3
							c-2.6-9-6.8-15.8-12.6-20.2c-2.5-1.9-5.3-3.3-8.3-4.3c-2.7-0.9-5.6-1.3-8.6-1.3c-4.4,0-8.8,0.9-12.8,2.7
							c-3.7,1.6-6.7,3.8-8.4,6.2c-1,1.3-2,3.3-1.4,5.4l-1.7,1c-0.2-0.2-4.1-4-7.5-10.1c-2-3.6-3.3-7.2-4-10.7
							c-0.9-4.5-0.7-8.8,0.6-12.9c2.5-8.2,9.2-15.6,19.9-21.9c6.1-3.6,13.7-6.9,22.5-9.8c9.5-3.2,20.7-5.9,33.3-8.3
							c13.6-2.5,27.2-3.8,40.4-3.8c10.9,0,21.7,0.9,32.2,2.6c9.5,1.6,19,3.8,28.2,6.8c15.4,5,30.2,11.9,43.9,20.6
							c5.4,3.4,10.6,7.1,15.6,11c4,3.1,7.7,6.3,11.2,9.6c4.8,4.5,7.7,7.8,8.7,9c1.8-0.4,7.5-1.7,13.9-4.6c4.5-2,8.4-4.3,11.7-6.9
							c4-3.2,7-6.8,8.9-10.7c1.9-3.9,2.7-8.2,2.4-12.7c-0.3-5.2-2.1-10.8-5.2-16.7c-6.3-11.9-17-20.6-32-25.8
							c-6-2.1-12.7-3.7-20-4.6c-5.9-0.8-12.2-1.2-18.8-1.2c-12.9,0-22.4,1.6-22.5,1.6l-1.9,0.3l0.8-1.7c0.1-0.1,1.6-3.3,5.6-8.1
							c2.4-2.8,5.1-5.6,8.1-8.2c3.8-3.3,8-6.5,12.6-9.4c11.6-7.4,25.6-13.3,41.6-17.5c9.4-2.5,19.7-4.4,30.4-5.8
							c11.8-1.5,24.6-2.2,37.9-2.2c2.9,0,6,0,9,0.1c25.5,0.6,49.9,3.8,72.6,9.6c18.1,4.6,35.2,10.8,50.7,18.5c6.1,3,12,6.3,17.4,9.7
							c4.4,2.7,8.5,5.5,12.3,8.4c6.5,4.9,9.6,8,9.8,8.2l0.3,0.3v0.4v396.4V1081.2z"/>
						<path class="st3" d="M171,629.7c-2.9,0-5.9,0-8.9,0.1C50.5,632.4-0.1,683.9-0.1,683.9v396.4h960h0.2h960V683.9
							c0,0-50.6-51.4-162.1-54.1c-3-0.1-6-0.1-8.9-0.1c-111.2,0-135.2,50.7-135.2,50.7s9.5-1.6,22.7-1.6c23,0,57.3,5,71.6,32.2
							c22.5,42.8-32.9,53.1-32.9,53.1s-48.7-59.7-139.5-59.7c-12.6,0-26,1.1-40.2,3.8c-116.5,21.5-64.2,72-64.2,72
							c-2.1-6.9,10-15.6,23.6-15.6c11.8,0,24.7,6.5,30.5,26.5c11.9,41.3-32.7,55-60.8,55c-1.2,0-2.3,0-3.4-0.1
							c-27.7-1.1-41.1-9.8-41.1-9.8c-16.4,10.4-24.6,30.2-24.6,30.2s-3.3-16.2-27.7-28.4c-16.2-8.1-39.5-9.5-53.2-9.5
							c-6.8,0-11.3,0.3-11.3,0.3c46.2,30.1-7.6,47.2-49.6,47.2c-11.4,0-21.9-1.3-29.3-3.8c-30.1-10.5,7.4-11.2,18.2-11.2
							c1.7,0,2.7,0,2.7,0s-14.2-14-64-15.1c-2.6-0.1-5.1-0.1-7.6-0.1c-45.9,0-79.2,8.8-79.2,8.8s6.8-6.2,22.7-9.3
							c-50.3,2-117.2,17.7-117.2,17.7c0,0-66.9-15.8-117.2-17.7c15.9,3.2,22.7,9.3,22.7,9.3s-33.3-8.8-79.2-8.8c-2.5,0-5,0-7.6,0.1
							c-49.8,1.1-64,15.1-64,15.1s1,0,2.7,0c10.8,0,48.3,0.7,18.2,11.2c-7.4,2.6-17.9,3.8-29.3,3.8c-42,0-95.8-17.1-49.6-47.2
							c0,0-4.5-0.3-11.3-0.3c-13.7,0-37,1.4-53.2,9.5c-24.3,12.2-27.7,28.4-27.7,28.4s-8.3-19.8-24.6-30.2c0,0-13.4,8.6-41.1,9.8
							c-1.1,0-2.2,0.1-3.4,0.1c-28.1,0-72.7-13.7-60.8-55c5.8-20,18.7-26.5,30.5-26.5c13.6,0,25.7,8.7,23.6,15.6
							c0,0,52.3-50.5-64.2-72c-14.2-2.6-27.6-3.8-40.2-3.8c-90.8,0-139.5,59.7-139.5,59.7s-55.5-10.3-32.9-53.1
							c14.3-27.2,48.6-32.2,71.6-32.2c13.2,0,22.7,1.6,22.7,1.6S282.1,629.7,171,629.7 M171,627.7c13.3,0,26.1,0.7,38,2.2
							c10.8,1.3,21.1,3.3,30.6,5.8c16,4.3,30.1,10.2,41.8,17.7c4.6,2.9,8.9,6.1,12.7,9.5c3.1,2.7,5.8,5.5,8.2,8.3
							c4.1,4.9,5.7,8.2,5.8,8.3c0.3,0.7,0.2,1.5-0.2,2.1c-0.4,0.5-1,0.8-1.6,0.8c-0.1,0-0.2,0-0.3,0c-0.1,0-9.5-1.6-22.4-1.6
							c-6.5,0-12.8,0.4-18.6,1.2c-7.2,1-13.8,2.5-19.8,4.6c-6.9,2.4-13,5.6-18,9.5c-5.7,4.4-10.2,9.7-13.4,15.9
							c-3.1,5.8-4.8,11.3-5.1,16.3c-0.3,4.4,0.5,8.5,2.3,12.2c1.8,3.8,4.7,7.2,8.6,10.3c3.2,2.5,7,4.8,11.4,6.7
							c5.8,2.5,11,3.9,13.2,4.4c1.3-1.5,4.1-4.5,8.4-8.6c3.5-3.3,7.3-6.5,11.3-9.7c5-3.9,10.2-7.6,15.7-11.1
							c13.8-8.8,28.6-15.7,44.1-20.7c9.2-3,18.7-5.3,28.3-6.8c10.6-1.7,21.4-2.6,32.4-2.6c13.2,0,26.9,1.3,40.6,3.8
							c12.6,2.3,23.9,5.1,33.4,8.3c8.8,2.9,16.5,6.3,22.7,9.9c10.9,6.4,17.7,14,20.3,22.5c1.3,4.3,1.5,8.8,0.6,13.4
							c-0.7,3.6-2.1,7.3-4.1,11c-3.4,6.2-7.5,10.1-7.6,10.3c-0.4,0.4-0.9,0.6-1.4,0.6c-0.4,0-0.7-0.1-1-0.3
							c-0.8-0.5-1.1-1.4-0.9-2.3c0.5-1.7-0.4-3.4-1.2-4.5c-1.6-2.2-4.5-4.3-8-5.8c-3.9-1.7-8.2-2.6-12.4-2.6c-2.9,0-5.7,0.4-8.3,1.2
							c-2.9,0.9-5.6,2.3-8,4.1c-5.6,4.3-9.7,10.9-12.3,19.7c-1.9,6.4-2.4,12.5-1.5,17.9c0.8,4.9,2.7,9.5,5.8,13.5
							c2.7,3.6,6.3,6.8,10.7,9.6c4,2.6,8.7,4.8,14,6.5c4.8,1.6,9.9,2.9,15.3,3.7c4.9,0.8,9.9,1.2,14.6,1.2c1.1,0,2.2,0,3.3-0.1
							c6.2-0.3,12.1-0.9,17.7-1.9c4.5-0.8,8.7-1.9,12.5-3.2c6.6-2.2,9.9-4.3,9.9-4.3c0.3-0.2,0.7-0.3,1.1-0.3c0.4,0,0.7,0.1,1.1,0.3
							c3.9,2.5,7.6,5.6,11.1,9.4c2.8,3,5.5,6.4,7.9,10.2c1.8,2.8,3.2,5.3,4.3,7.2c0.8-1.6,1.8-3.5,3.3-5.7c2.3-3.4,5.3-6.6,8.7-9.6
							c4.3-3.7,9.3-7,15-9.9c7.4-3.7,16.9-6.4,28.2-8c5.5-0.8,14.5-1.7,25.9-1.7c6.8,0,11.3,0.3,11.4,0.3c0.9,0.1,1.6,0.7,1.8,1.5
							c0.2,0.8-0.1,1.7-0.8,2.2c-6.9,4.5-11.7,8.8-14.4,12.9c-1.2,1.8-2,3.6-2.3,5.2c-0.3,1.5-0.2,3,0.2,4.4
							c1.8,5.9,9.9,11.4,23,15.3c12,3.6,27.3,5.7,42,5.7c11.6,0,21.8-1.3,28.7-3.7c3.4-1.2,6-2.3,7.8-3.2c1.2-0.6,1.8-1.1,2.1-1.4
							c-0.5-0.3-1.4-0.6-3.3-1.1c-2-0.4-4.7-0.8-8-1.1c-6-0.5-12.7-0.6-16.1-0.6c-1.7,0-2.7,0-2.7,0c0,0,0,0,0,0
							c-0.8,0-1.5-0.5-1.8-1.2c-0.3-0.8-0.1-1.6,0.4-2.2c0.2-0.2,4-3.8,14-7.6c5.8-2.2,12.5-3.9,20-5.2c9.3-1.6,19.8-2.6,31.3-2.8
							c2.5-0.1,5.1-0.1,7.6-0.1c10.5,0,21.3,0.5,31.9,1.4c8.5,0.7,17,1.7,25.2,3c2.8,0.4,5.5,0.9,7.8,1.3c-2.5-0.8-5.4-1.7-8.8-2.3
							c-1-0.2-1.7-1.2-1.6-2.2c0.1-1,1-1.8,2-1.8c0,0,0.1,0,0.1,0c48,1.9,110.7,16.2,117.1,17.7c6.4-1.5,69.1-15.8,117.1-17.7
							c0,0,0.1,0,0.1,0c1,0,1.9,0.8,2,1.8c0.1,1-0.6,2-1.6,2.2c-3.4,0.7-6.3,1.5-8.8,2.3c2.4-0.4,5-0.9,7.8-1.3
							c8.2-1.3,16.7-2.3,25.2-3c10.7-0.9,21.4-1.4,31.9-1.4c2.5,0,5.1,0,7.6,0.1c11.5,0.2,22,1.2,31.3,2.8c7.5,1.3,14.2,3.1,20,5.2
							c10.1,3.7,13.9,7.4,14,7.6c0.6,0.6,0.8,1.4,0.4,2.2c-0.3,0.7-1,1.2-1.8,1.2c0,0,0,0,0,0c0,0-1,0-2.7,0
							c-3.4,0-10.1,0.1-16.1,0.6c-3.3,0.3-6,0.6-8,1.1c-1.9,0.4-2.8,0.8-3.3,1.1c0.3,0.3,0.9,0.8,2.1,1.4c1.8,1,4.4,2.1,7.8,3.2
							c6.9,2.4,17.1,3.7,28.7,3.7c14.7,0,29.9-2.1,42-5.7c13.1-3.9,21.2-9.4,23-15.3c0.4-1.4,0.5-2.9,0.2-4.4
							c-0.3-1.7-1.1-3.4-2.3-5.2c-2.7-4.1-7.5-8.4-14.4-12.9c-0.7-0.5-1.1-1.3-0.8-2.2c0.2-0.8,0.9-1.4,1.8-1.5
							c0.2,0,4.6-0.3,11.4-0.3c6.3,0,15.9,0.3,25.9,1.7c11.3,1.6,20.8,4.3,28.2,8c5.7,2.9,10.7,6.2,15,9.9c3.4,3,6.4,6.2,8.7,9.6
							c1.5,2.1,2.5,4.1,3.3,5.7c1-2,2.5-4.5,4.3-7.2c2.4-3.7,5.1-7.1,7.9-10.2c3.5-3.8,7.3-7,11.1-9.4c0.3-0.2,0.7-0.3,1.1-0.3
							c0.4,0,0.8,0.1,1.1,0.3c0,0,3.3,2.1,9.9,4.3c3.9,1.3,8.1,2.4,12.5,3.2c5.6,1,11.5,1.7,17.7,1.9c1.1,0,2.2,0.1,3.3,0.1
							c4.8,0,9.7-0.4,14.6-1.2c5.4-0.8,10.5-2.1,15.3-3.7c5.2-1.8,9.9-4,14-6.6c4.4-2.8,8-6,10.7-9.6c3-4,5-8.6,5.8-13.5
							c0.9-5.4,0.4-11.5-1.5-17.9c-2.5-8.8-6.7-15.5-12.3-19.7c-2.4-1.8-5.1-3.2-8-4.1c-2.6-0.8-5.4-1.2-8.3-1.2
							c-4.3,0-8.6,0.9-12.4,2.6c-3.5,1.5-6.4,3.6-8,5.8c-0.8,1.1-1.7,2.9-1.2,4.5c0.3,0.9-0.1,1.8-0.9,2.3c-0.3,0.2-0.7,0.3-1,0.3
							c-0.5,0-1-0.2-1.4-0.6c-0.2-0.2-4.2-4.1-7.6-10.3c-2-3.7-3.4-7.4-4.1-11c-0.9-4.6-0.7-9.1,0.6-13.4
							c2.6-8.5,9.4-16.1,20.3-22.5c6.2-3.6,13.8-7,22.7-9.9c9.6-3.2,20.8-6,33.4-8.3c13.7-2.5,27.3-3.8,40.6-3.8
							c10.9,0,21.8,0.9,32.4,2.6c9.6,1.6,19.1,3.9,28.3,6.8c15.5,5,30.3,12,44.1,20.7c5.4,3.4,10.7,7.2,15.7,11.1
							c4,3.1,7.8,6.4,11.3,9.7c4.3,4,7.1,7.1,8.4,8.6c2.2-0.5,7.4-1.8,13.2-4.4c4.4-1.9,8.2-4.2,11.4-6.7c3.9-3.1,6.8-6.5,8.6-10.3
							c1.8-3.7,2.6-7.8,2.3-12.2c-0.3-5-2-10.5-5.1-16.3c-3.2-6.2-7.8-11.5-13.4-15.9c-5-3.9-11.1-7.1-18-9.5
							c-5.9-2.1-12.6-3.6-19.8-4.6c-5.9-0.8-12.2-1.2-18.6-1.2c-12.8,0-22.3,1.6-22.4,1.6c-0.1,0-0.2,0-0.3,0
							c-0.6,0-1.2-0.3-1.6-0.8c-0.5-0.6-0.5-1.4-0.2-2.1c0.1-0.1,1.7-3.5,5.8-8.3c2.4-2.8,5.1-5.6,8.2-8.3c3.8-3.4,8.1-6.5,12.7-9.5
							c11.7-7.5,25.8-13.4,41.8-17.7c9.5-2.5,19.8-4.5,30.6-5.8c11.9-1.5,24.6-2.2,38-2.2c0,0,0,0,0,0c2.9,0,6,0,9,0.1
							c25.6,0.6,50.1,3.8,72.8,9.6c18.2,4.6,35.3,10.9,50.9,18.6c6.1,3,12,6.3,17.5,9.7c4.4,2.7,8.6,5.6,12.4,8.4
							c6.5,4.9,9.7,8.1,9.9,8.3c0.4,0.4,0.6,0.9,0.6,1.4v396.4c0,1.1-0.9,2-2,2h-960h-0.2h-960c-1.1,0-2-0.9-2-2V683.9
							c0-0.5,0.2-1,0.6-1.4c0.1-0.1,3.3-3.4,9.9-8.3c3.8-2.9,8-5.7,12.4-8.4c5.5-3.4,11.4-6.7,17.5-9.7c15.6-7.7,32.7-14,50.9-18.6
							c22.7-5.8,47.2-9,72.8-9.6C165,627.7,168,627.7,171,627.7z"/>
					</g>
					<path class="st14" d="M13.9,690.2c1.6-1.3,3.6-2.9,6.1-4.6"/>
					<path class="st14" d="M98.3,651.7c21-4.8,42.5-7.5,64-7.9c2.9-0.1,5.8-0.1,8.6-0.1c10.6,0,20.3,0.5,29.1,1.3"/>
					<path class="st14" d="M231.2,650.1c17.6,4.2,30.3,10,39,15.2c-33.9,2.8-58.8,16.4-70.7,39.1c-3.4,6.2-5.6,12.9-6.6,19.8"/>
					<path class="st14" d="M294.8,741.9c27.2-15.6,57.2-23.5,89.4-23.5c1.2,0,2.3,0,3.5,0"/>
					<path class="st14" d="M439,759.3c-8.1,6.3-14.3,15.8-17.8,27.9c-6.2,21.7,0.3,36.7,6.9,45.5c3,4,6.5,7.5,10.5,10.5"/>
					<path class="st14" d="M523.2,857c4.4-1,8.8-2.2,13.1-3.8"/>
					<path class="st14" d="M659.8,883.9c20.2,6,42.4,6.3,46.5,6.3c9.4,0,23-0.8,33.9-4.6c1.2-0.4,2.7-0.9,4.3-1.6"/>
					<path class="st14" d="M779.8,860c2.1,0,4.3-0.1,6.5-0.1c16.9,0,33.7,1.2,50.4,3.6"/>
					<path class="st14" d="M1005,868.3c9.8-1.7,20.6-3.5,31.6-5"/>
					<path class="st14" d="M1159.3,862.4c0,0.2-0.1,0.5-0.1,0.7c-2.4,14.4,13.7,20,20.6,22.4c11,3.8,24.5,4.6,33.9,4.6
						c6.8,0,63.2-0.8,78-26.9"/>
					<path class="st14" d="M1356.4,901.3l6.5-16"/>
					<path class="st14" d="M1386.4,854.2c8.7,2.8,17.7,4.6,26.8,5.3"/>
					<path class="st14" d="M1487.4,765.4c-8.1-9.5-20-15-32.5-14.8c-7.4,0-14.6,1.8-21.2,5.1c-0.1-1.4,0-2.9,0.4-4.3
						c1.4-4.4,10-19.5,64-29.5c0.7-0.1,1.3-0.2,2-0.4"/>
					<path class="st14" d="M1605.7,732.2c8.8,3.7,17.3,8.1,25.4,13.2c21.7,13.6,33.2,27.4,33.3,27.5l5.2,6.3l8.1-1.5
						c5.5-1.1,10.9-2.8,16.1-4.9"/>
					<path class="st14" d="M1720.5,704.4c-12-22.7-36.8-36.3-70.7-39.1c15.9-9.5,44.5-20.5,92.3-21.5"/>
					<path class="st14" d="M1726.4,660.7c11.4-2.6,28.3-3.8,51.9,0.5"/>
					<path class="st14" d="M1844.3,658c9.9,3.2,19.6,7.1,29,11.7c11.7,5.5,22.7,12.4,32.8,20.5"/>
					<g>
						<path class="st2" d="M1139.2,602.8l-1.3-0.3L960,557.2l-177.9,45.2l-1.3,0.3l0.1-1.4l4.1-57.8l0-0.6l0.5-0.3l174-89.6l0.5-0.2
							l0.5,0.2l174,89.6l0.5,0.3l0,0.6l4.1,57.8L1139.2,602.8z"/>
						<path class="st3" d="M1138.1,601.5l-4.1-57.8L960,454l-174,89.6l-4.1,57.8L960,556.1L1138.1,601.5 M1138.1,603.5
							c-0.2,0-0.3,0-0.5-0.1L960,558.2l-177.6,45.2c-0.2,0-0.3,0.1-0.5,0.1c-0.5,0-0.9-0.2-1.3-0.5c-0.5-0.4-0.8-1-0.7-1.7l4.1-57.8
							c0-0.7,0.5-1.3,1.1-1.6l174-89.6c0.3-0.1,0.6-0.2,0.9-0.2c0.3,0,0.6,0.1,0.9,0.2l174,89.6c0.6,0.3,1,0.9,1.1,1.6l4.1,57.8
							c0,0.6-0.2,1.3-0.7,1.7C1139.1,603.3,1138.6,603.5,1138.1,603.5z"/>
					</g>
				</g>
				<g class="st5">
					<line class="st16" x1="960" y1="-53.2" x2="960" y2="-781.1"/>
					<line class="st16" x1="985.1" y1="-52.6" x2="1023.2" y2="-779.5"/>
					<line class="st16" x1="1010.2" y1="-50.6" x2="1086.2" y2="-774.5"/>
					<line class="st16" x1="1035.1" y1="-47.3" x2="1148.9" y2="-766.2"/>
					<line class="st16" x1="1059.8" y1="-42.8" x2="1211.1" y2="-754.7"/>
					<line class="st16" x1="1084.2" y1="-36.9" x2="1272.5" y2="-740"/>
					<line class="st16" x1="1108.3" y1="-29.8" x2="1333.2" y2="-722"/>
					<line class="st16" x1="1132" y1="-21.4" x2="1392.8" y2="-700.9"/>
					<line class="st16" x1="1155.2" y1="-11.8" x2="1451.2" y2="-676.7"/>
					<line class="st16" x1="1177.8" y1="-0.9" x2="1508.2" y2="-649.5"/>
					<line class="st16" x1="1199.9" y1="11" x2="1563.8" y2="-619.3"/>
					<line class="st16" x1="1221.3" y1="24.2" x2="1617.7" y2="-586.3"/>
					<line class="st16" x1="1242" y1="38.4" x2="1669.8" y2="-550.5"/>
					<line class="st16" x1="1262" y1="53.7" x2="1719.9" y2="-512"/>
					<line class="st16" x1="1281.1" y1="70" x2="1768" y2="-470.9"/>
					<line class="st16" x1="1299.3" y1="87.3" x2="1813.9" y2="-427.4"/>
					<line class="st16" x1="1316.6" y1="105.5" x2="1857.4" y2="-381.5"/>
					<line class="st16" x1="1332.9" y1="124.6" x2="1898.5" y2="-333.4"/>
					<line class="st16" x1="1348.2" y1="144.6" x2="1936.9" y2="-283.3"/>
					<line class="st16" x1="1362.4" y1="165.3" x2="1972.7" y2="-231.2"/>
					<line class="st16" x1="1375.5" y1="186.7" x2="2005.8" y2="-177.3"/>
					<line class="st16" x1="1387.5" y1="208.8" x2="2035.9" y2="-121.7"/>
					<line class="st16" x1="1398.3" y1="231.4" x2="2063.2" y2="-64.6"/>
					<line class="st16" x1="1407.9" y1="254.7" x2="2087.4" y2="-6.2"/>
					<line class="st16" x1="1416.3" y1="278.3" x2="2108.5" y2="53.4"/>
					<line class="st16" x1="1423.5" y1="302.4" x2="2126.4" y2="114"/>
					<line class="st16" x1="1429.3" y1="326.9" x2="2141.2" y2="175.5"/>
					<line class="st16" x1="1433.9" y1="351.6" x2="2152.7" y2="237.7"/>
					<line class="st16" x1="1437.2" y1="376.5" x2="2161" y2="300.4"/>
					<line class="st16" x1="1439.2" y1="401.6" x2="2165.9" y2="363.5"/>
					<line class="st16" x1="1439.8" y1="426.6" x2="2167.6" y2="426.6"/>
					<line class="st16" x1="1439.2" y1="451.8" x2="2165.9" y2="489.9"/>
					<line class="st16" x1="1437.2" y1="476.8" x2="2161" y2="552.8"/>
					<line class="st16" x1="1433.9" y1="501.7" x2="2152.7" y2="615.5"/>
					<line class="st16" x1="1429.3" y1="526.4" x2="2141.2" y2="677.7"/>
					<line class="st16" x1="1423.5" y1="550.8" x2="2126.4" y2="739.2"/>
					<line class="st16" x1="1416.3" y1="574.9" x2="2108.5" y2="799.8"/>
					<line class="st16" x1="1408" y1="598.6" x2="2087.4" y2="859.4"/>
					<line class="st16" x1="1398.3" y1="621.8" x2="2063.2" y2="917.8"/>
					<line class="st16" x1="1387.5" y1="644.5" x2="2036" y2="974.9"/>
					<line class="st16" x1="1375.5" y1="666.6" x2="2005.8" y2="1030.5"/>
					<line class="st16" x1="1362.4" y1="688" x2="1972.8" y2="1084.4"/>
					<line class="st16" x1="1348.2" y1="708.7" x2="1937" y2="1136.5"/>
					<line class="st16" x1="1332.9" y1="728.6" x2="1898.5" y2="1186.7"/>
					<line class="st16" x1="1316.6" y1="747.7" x2="1857.4" y2="1234.7"/>
					<line class="st16" x1="1299.3" y1="765.9" x2="1813.9" y2="1280.6"/>
					<line class="st16" x1="1281.1" y1="783.2" x2="1768.1" y2="1324.1"/>
					<line class="st16" x1="1262" y1="799.6" x2="1720" y2="1365.2"/>
					<line class="st16" x1="1242" y1="814.8" x2="1669.8" y2="1403.7"/>
					<line class="st16" x1="1221.3" y1="829.1" x2="1617.7" y2="1439.5"/>
					<line class="st16" x1="1199.9" y1="842.2" x2="1563.8" y2="1472.5"/>
					<line class="st16" x1="1177.9" y1="854.2" x2="1508.3" y2="1502.7"/>
					<line class="st16" x1="1155.2" y1="865" x2="1451.2" y2="1529.9"/>
					<line class="st16" x1="1132" y1="874.6" x2="1392.8" y2="1554.1"/>
					<line class="st16" x1="1108.3" y1="883" x2="1333.2" y2="1575.2"/>
					<line class="st16" x1="1084.2" y1="890.2" x2="1272.6" y2="1593.2"/>
					<line class="st16" x1="1059.8" y1="896" x2="1211.1" y2="1608"/>
					<line class="st16" x1="1035.1" y1="900.6" x2="1149" y2="1619.5"/>
					<line class="st16" x1="1010.2" y1="903.9" x2="1086.3" y2="1627.8"/>
					<line class="st16" x1="985.1" y1="905.8" x2="1023.2" y2="1632.7"/>
					<line class="st16" x1="960" y1="906.5" x2="960.1" y2="1634.4"/>
					<line class="st16" x1="934.9" y1="905.9" x2="896.9" y2="1632.7"/>
					<line class="st16" x1="909.9" y1="903.9" x2="833.9" y2="1627.8"/>
					<line class="st16" x1="885" y1="900.6" x2="771.2" y2="1619.5"/>
					<line class="st16" x1="860.3" y1="896" x2="709" y2="1608"/>
					<line class="st16" x1="835.9" y1="890.2" x2="647.5" y2="1593.2"/>
					<line class="st16" x1="811.8" y1="883" x2="586.9" y2="1575.3"/>
					<line class="st16" x1="788.1" y1="874.6" x2="527.3" y2="1554.2"/>
					<line class="st16" x1="764.9" y1="865" x2="468.9" y2="1530"/>
					<line class="st16" x1="742.2" y1="854.2" x2="411.9" y2="1502.8"/>
					<line class="st16" x1="720.1" y1="842.2" x2="356.3" y2="1472.6"/>
					<line class="st16" x1="698.7" y1="829.1" x2="302.4" y2="1439.6"/>
					<line class="st16" x1="678" y1="814.9" x2="250.3" y2="1403.8"/>
					<line class="st16" x1="658.1" y1="799.6" x2="200.1" y2="1365.3"/>
					<line class="st16" x1="639" y1="783.3" x2="152.1" y2="1324.2"/>
					<line class="st16" x1="620.8" y1="766" x2="106.2" y2="1280.7"/>
					<line class="st16" x1="603.5" y1="747.8" x2="62.7" y2="1234.8"/>
					<line class="st16" x1="587.2" y1="728.7" x2="21.6" y2="1186.8"/>
					<line class="st16" x1="571.9" y1="708.7" x2="-16.9" y2="1136.6"/>
					<line class="st16" x1="557.6" y1="688" x2="-52.7" y2="1084.5"/>
					<line class="st16" x1="544.5" y1="666.6" x2="-85.7" y2="1030.6"/>
					<line class="st16" x1="532.5" y1="644.5" x2="-115.9" y2="975"/>
					<line class="st16" x1="521.7" y1="621.8" x2="-143.1" y2="917.9"/>
					<line class="st16" x1="512.1" y1="598.6" x2="-167.3" y2="859.5"/>
					<line class="st16" x1="503.7" y1="575" x2="-188.4" y2="799.9"/>
					<line class="st16" x1="496.6" y1="550.9" x2="-206.4" y2="739.3"/>
					<line class="st16" x1="490.7" y1="526.4" x2="-221.1" y2="677.8"/>
					<line class="st16" x1="486.1" y1="501.7" x2="-232.7" y2="615.7"/>
					<line class="st16" x1="482.8" y1="476.8" x2="-240.9" y2="553"/>
					<line class="st16" x1="480.9" y1="451.8" x2="-245.9" y2="490"/>
					<line class="st16" x1="480.2" y1="426.7" x2="-247.6" y2="426.7"/>
					<line class="st16" x1="480.9" y1="401.6" x2="-245.9" y2="363.6"/>
					<line class="st16" x1="482.8" y1="376.5" x2="-240.9" y2="300.5"/>
					<line class="st16" x1="486.1" y1="351.6" x2="-232.7" y2="237.8"/>
					<line class="st16" x1="490.7" y1="326.9" x2="-221.2" y2="175.6"/>
					<line class="st16" x1="496.5" y1="302.5" x2="-206.4" y2="114.1"/>
					<line class="st16" x1="503.7" y1="278.4" x2="-188.5" y2="53.5"/>
					<line class="st16" x1="512.1" y1="254.7" x2="-167.4" y2="-6.1"/>
					<line class="st16" x1="521.7" y1="231.5" x2="-143.2" y2="-64.5"/>
					<line class="st16" x1="532.5" y1="208.8" x2="-116" y2="-121.6"/>
					<line class="st16" x1="544.5" y1="186.7" x2="-85.8" y2="-177.1"/>
					<line class="st16" x1="557.6" y1="165.3" x2="-52.8" y2="-231.1"/>
					<line class="st16" x1="571.8" y1="144.6" x2="-17" y2="-283.2"/>
					<line class="st16" x1="587.1" y1="124.7" x2="21.5" y2="-333.3"/>
					<line class="st16" x1="603.4" y1="105.6" x2="62.5" y2="-381.4"/>
					<line class="st16" x1="620.7" y1="87.3" x2="106.1" y2="-427.3"/>
					<line class="st16" x1="638.9" y1="70" x2="151.9" y2="-470.8"/>
					<line class="st16" x1="658" y1="53.7" x2="200" y2="-511.9"/>
					<line class="st16" x1="678" y1="38.4" x2="250.1" y2="-550.4"/>
					<line class="st16" x1="698.7" y1="24.2" x2="302.2" y2="-586.2"/>
					<line class="st16" x1="720.1" y1="11.1" x2="356.1" y2="-619.2"/>
					<line class="st16" x1="742.1" y1="-0.9" x2="411.7" y2="-649.4"/>
					<line class="st16" x1="764.8" y1="-11.7" x2="468.7" y2="-676.6"/>
					<line class="st16" x1="788" y1="-21.4" x2="527.1" y2="-700.9"/>
					<line class="st16" x1="811.7" y1="-29.7" x2="586.7" y2="-722"/>
					<line class="st16" x1="835.8" y1="-36.9" x2="647.4" y2="-739.9"/>
					<line class="st16" x1="860.2" y1="-42.7" x2="708.8" y2="-754.7"/>
					<line class="st16" x1="884.9" y1="-47.3" x2="771" y2="-766.2"/>
					<line class="st16" x1="909.8" y1="-50.6" x2="833.7" y2="-774.5"/>
					<line class="st16" x1="934.8" y1="-52.6" x2="896.7" y2="-779.4"/>
				</g>
				<path class="st17" d="M1094.6,897.3c0,0-52.3-49.5-134.5-49.5s-134.7,49.5-134.7,49.5l-53.7,183h376.6L1094.6,897.3z"/>
				<path class="st18" d="M1094.6,897.3c0,0-52.3-49.5-134.5-49.5s-134.7,49.5-134.7,49.5l-53.7,183h376.6L1094.6,897.3z"/>
				<rect x="501.6" y="-31.9" class="st19" width="916.9" height="917"/>
				<path class="st20" d="M717,669.5l-85.2,22.8l62.4,62.4L717,669.5z"/>
				<path class="st20" d="M1203.8,670.1l22.8,85.2l62.4-62.4L1203.8,670.1z"/>
				<path class="st20" d="M1203.2,183.2l85.2-22.8L1226.1,98L1203.2,183.2z"/>
				<path class="st20" d="M717,183.2L694.2,98l-62.4,62.4L717,183.2z"/>
				<path class="st20" d="M941.1,83.3v113.9h38.2V83.3c64.7,3.5,127.2,25.2,180,62.8l27.4-27.4c-134.3-99.2-318.8-99.2-453.2,0
					l27.4,27.4C813.8,108.5,876.3,86.7,941.1,83.3z"/>
				<path class="st20" d="M979.3,769.4V655.7h-38.2v113.8c-64.8-3.4-127.2-25.2-180.1-62.8L733.5,734c134.3,99.2,318.8,99.2,453.2,0
					l-27.4-27.4C1106.4,744.2,1044,766,979.3,769.4z"/>
				<path class="st20" d="M730.9,445.5v-38.2H617.1c3.4-64.8,25.2-127.3,62.8-180.1l-27.4-27.4c-99.2,134.3-99.2,318.9,0,453.2
					l27.4-27.4c-37.6-52.9-59.3-115.3-62.8-180.1L730.9,445.5z"/>
				<path class="st20" d="M1189.4,407.3v38.2h113.8c-3.5,64.8-25.2,127.2-62.8,180.1l27.4,27.4c99.2-134.3,99.2-318.9,0-453.2
					l-27.4,27.4c37.6,52.9,59.4,115.4,62.8,180.1L1189.4,407.3z"/>
				<path class="st20" d="M902.9,687.6C800.9,665.3,721.3,585.7,699,483.7h-39c23.5,123.1,119.8,219.4,242.9,242.9L902.9,687.6z"/>
				<path class="st20" d="M1017.5,165.2c101.9,22.3,181.6,101.9,203.9,203.9h39c-23.5-123.1-119.8-219.4-242.9-242.9L1017.5,165.2z"
					/>
				<path class="st20" d="M1017.5,726.7c123.1-23.5,219.4-119.8,242.9-242.9h-39c-22.3,102-101.9,181.6-203.9,203.9L1017.5,726.7z"
					/>
				<path class="st20" d="M902.9,126.2C779.7,149.7,683.5,246,659.9,369.1h39c22.3-102,101.9-181.6,203.9-203.9L902.9,126.2z"/>
				<path class="st20" d="M1028.2,466.9l-40.5-40.5l40.5-40.5l-27-27l-40.5,40.5l-40.5-40.5l-27,27l40.5,40.5l-40.5,40.5l27,27
					l40.5-40.5l40.5,40.5L1028.2,466.9z"/>
				<g transform="translate(0 0)" class="st5">
					<rect x="-0.1" y="0" class="st21" width="1920.2" height="1080.2"/>
					<rect x="9.9" y="10" class="st22" width="1900.2" height="1060.2"/>
				</g>
				<g transform="translate(31 116)" class="st5">
					<rect x="374" y="307.2" width="1110.1" height="232.1"/>
					<path class="st1" d="M418.4,350.4v145.7h37.9v-60h45.3v-29.8h-45.3v-24.9h48.4v-31H418.4z M516.5,350.4v145.7h84.7v-31h-46.7
						V350.4H516.5z M610.9,350.4v145.7h88.1v-31h-50.2v-29h45.3v-29.8h-45.3v-24.9h48.4v-31H610.9z M704,350.4l32,71.8l-33.9,73.9
						H744l14.5-43.9h0.4l14.5,43.9h42.4l-34.1-73.9l31.6-71.8h-42.4l-12,42.2h-0.4l-12-42.2H704z M911.9,413.3v-35.5h7.1
						c9.8,0,14.7,5.9,14.7,17.8c0,6.1-1.3,10.6-3.8,13.5s-6.2,4.3-10.9,4.3L911.9,413.3z M873.9,350.4v145.7h37.9v-55.5h13.3
						c15.6,0,27.5-3.8,35.6-11.3s12.1-18.9,12.1-34c0.1-6-0.8-12-2.5-17.8c-1.5-5.2-4.1-10.1-7.7-14.2c-3.6-4.1-8.1-7.4-13.2-9.5
						c-6-2.4-12.3-3.6-18.8-3.5H873.9z M983.5,350.4v145.7h37.9V350.4H983.5z M1075.9,412v-34.3h7.3c5.7,0,9.8,1.3,12.3,3.9
						c2.5,2.6,3.8,6.9,3.8,13.1c0,5.2-1.3,9.4-3.9,12.5s-6.6,4.8-12,4.8H1075.9z M1038,350.4v145.7h37.9v-58.4h10
						c2-0.1,3.9,0.3,5.8,0.9c1.6,0.6,3,1.8,3.9,3.3c1.2,2,1.9,4.2,2.1,6.4c0.5,3.4,0.7,6.8,0.6,10.2v9.8c0,1.5,0,3.4,0.1,5.8
						c0.1,2.4,0.2,4.9,0.4,7.4c0.2,2.6,0.5,5.2,1,7.8c0.4,2.3,1.1,4.6,2.1,6.7h40.4v-2c-1-0.5-1.9-1.2-2.7-2.1
						c-0.5-0.7-1.1-1.5-1.6-2.3c-0.5-1.1-0.8-2.3-1-3.5c-0.3-1.7-0.5-3.3-0.6-5c-0.1-1.8-0.2-3.8-0.2-5.8v-18.4
						c0-9.8-1.7-17.5-5.1-23.1c-3.4-5.6-9.7-8.8-18.8-9.6v-0.4c8.7-1.4,15-5,19-11c3.9-6,5.9-13.9,5.9-23.7c0-5.2-0.7-10.5-2.1-15.5
						c-1.3-4.6-3.7-8.8-6.9-12.3c-3.5-3.6-7.7-6.4-12.4-8.1c-5.9-2-12.2-3-18.5-2.9H1038z M1202.6,380.2l-10.4,61.8h21.2l-10.4-61.8
						H1202.6z M1226.7,350.4l35.5,145.7h-40.4l-3.9-25.5h-30.2l-3.9,25.5H1144l34.9-145.7H1226.7z M1276.5,382.7v113.5h37.9V382.7
						h28.6v-32.2h-94.7v32.2H1276.5z M1351.5,350.4v145.7h88.1v-31h-50.2v-29h45.3v-29.8h-45.3v-24.9h48.4v-31H1351.5z"/>
				</g>
			</g>
		</g>
	</g>
</g>
</svg>
