<svg xmlns="http://www.w3.org/2000/svg" xmlns:xlink="http://www.w3.org/1999/xlink" width="92" height="92" viewBox="0 0 92 92"><defs><clipPath id="b"><rect width="92" height="92"/></clipPath></defs><g id="a" clip-path="url(#b)"><g transform="translate(-32 -1180)"><rect width="92" height="92" transform="translate(32 1180)" fill="none"/><path d="M53.616,1250.369l-8.551,2.291,6.26,6.26Z" fill="#f06" stroke="#00251a" stroke-linecap="round" stroke-linejoin="round" stroke-width="1"/><path d="M102.459,1250.422l2.291,8.551,6.26-6.26Z" fill="#f06" stroke="#00251a" stroke-linecap="round" stroke-linejoin="round" stroke-width="1"/><path d="M102.406,1201.578l8.551-2.291-6.26-6.26Z" fill="#f06" stroke="#00251a" stroke-linecap="round" stroke-linejoin="round" stroke-width="1"/><path d="M53.616,1201.578l-2.291-8.551-6.26,6.26Z" fill="#f06" stroke="#00251a" stroke-linecap="round" stroke-linejoin="round" stroke-width="1"/><path d="M76.1,1191.554v11.423h3.833v-11.422a34.349,34.349,0,0,1,18.066,6.3l2.749-2.75a38.357,38.357,0,0,0-45.47,0l2.749,2.75A34.358,34.358,0,0,1,76.1,1191.554Z" fill="#f06" stroke="#00251a" stroke-linecap="round" stroke-linejoin="round" stroke-width="1"/><path d="M79.931,1260.392v-11.415H76.1v11.416a34.356,34.356,0,0,1-18.073-6.3l-2.749,2.75a38.357,38.357,0,0,0,45.47,0L98,1254.091A34.351,34.351,0,0,1,79.931,1260.392Z" fill="#f06" stroke="#00251a" stroke-linecap="round" stroke-linejoin="round" stroke-width="1"/><path d="M55.015,1227.894v-3.833H43.592a34.345,34.345,0,0,1,6.3-18.073l-2.75-2.75a38.358,38.358,0,0,0,0,45.471l2.75-2.75a34.348,34.348,0,0,1-6.3-18.065Z" fill="#f06" stroke="#00251a" stroke-linecap="round" stroke-linejoin="round" stroke-width="1"/><path d="M101.015,1224.061v3.833H112.43a34.348,34.348,0,0,1-6.3,18.065l2.75,2.75a38.358,38.358,0,0,0,0-45.471l-2.75,2.75a34.345,34.345,0,0,1,6.3,18.073Z" fill="#f06" stroke="#00251a" stroke-linecap="round" stroke-linejoin="round" stroke-width="1"/><path d="M72.265,1252.183a26.808,26.808,0,0,1-20.456-20.456H47.891A30.671,30.671,0,0,0,72.265,1256.1Z" fill="#f06" stroke="#00251a" stroke-linecap="round" stroke-linejoin="round" stroke-width="1"/><path d="M83.765,1199.772a26.8,26.8,0,0,1,20.455,20.455h3.918a30.672,30.672,0,0,0-24.373-24.373Z" fill="#f06" stroke="#00251a" stroke-linecap="round" stroke-linejoin="round" stroke-width="1"/><path d="M83.765,1256.1a30.671,30.671,0,0,0,24.373-24.374H104.22a26.805,26.805,0,0,1-20.455,20.456Z" fill="#f06" stroke="#00251a" stroke-linecap="round" stroke-linejoin="round" stroke-width="1"/><path d="M72.265,1195.854a30.671,30.671,0,0,0-24.374,24.373h3.918a26.806,26.806,0,0,1,20.456-20.455Z" fill="#f06" stroke="#00251a" stroke-linecap="round" stroke-linejoin="round" stroke-width="1"/><path d="M84.84,1230.039l-4.066-4.066,4.066-4.066-2.711-2.71-4.066,4.066L74,1219.2l-2.711,2.711,4.066,4.066-4.066,4.066L74,1232.75l4.066-4.066,4.066,4.066Z" fill="#f06" stroke="#00251a" stroke-linecap="round" stroke-linejoin="round" stroke-width="1"/></g></g></svg>